<svg 
  xmlns="http://www.w3.org/2000/svg" 
  viewBox="0 0 768 768"
  width="768"
  height="768"
>
<style>svg {background-color: white; }</style>"

<path stroke="none" fill="black" fill-rule="evenodd" d="M426.50,739.89C424.85,739.84 422.38,739.49 421.02,739.11C418.68,738.46 418.12,736.76 411.77,711.46C408.05,696.63 401.64,669.40 397.54,650.94C393.43,632.49 387.61,607.06 384.59,594.44C381.58,581.82 377.94,565.02 376.51,557.10C375.08,549.18 373.26,539.61 372.47,535.85C371.67,532.08 369.61,526.18 367.87,522.75C366.14,519.31 362.52,513.24 359.83,509.26C357.15,505.27 353.95,501.36 352.72,500.57C351.50,499.78 347.57,498.83 344.00,498.47C340.43,498.10 334.69,497.18 331.25,496.42C327.81,495.65 322.19,493.62 318.75,491.90C315.31,490.18 310.56,487.20 308.20,485.27C305.83,483.35 299.88,476.46 294.97,469.97C290.07,463.47 285.58,457.86 285.01,457.51C284.44,457.15 284.23,456.44 284.54,455.93C284.86,455.42 292.18,455.01 300.81,455.02C310.63,455.03 319.06,455.58 323.33,456.48C327.09,457.28 332.57,459.03 335.50,460.37C338.43,461.71 343.27,464.61 346.25,466.82C349.23,469.02 352.89,472.27 354.39,474.05C355.89,475.83 358.26,479.56 359.67,482.34C361.79,486.53 362.14,488.32 361.70,492.66C361.22,497.24 361.50,498.43 363.83,501.79C365.30,503.92 367.28,506.72 368.23,508.02C369.18,509.32 370.26,510.08 370.62,509.71C370.99,509.34 370.73,504.19 370.05,498.27C369.36,492.35 368.15,483.90 367.36,479.50C366.56,475.10 364.74,467.90 363.31,463.50C361.89,459.10 359.24,452.55 357.44,448.94C355.64,445.33 351.47,438.36 348.19,433.44C344.90,428.52 339.49,421.91 336.18,418.75C332.86,415.59 329.39,413.00 328.46,413.00C327.54,413.00 324.24,415.32 321.14,418.16C318.04,421.00 312.72,424.63 309.32,426.22C304.52,428.47 301.16,429.25 294.24,429.70C287.69,430.12 283.28,429.82 277.56,428.55C273.29,427.60 266.93,425.32 263.43,423.50C259.92,421.67 253.51,417.68 249.19,414.63C244.86,411.58 240.74,408.39 240.03,407.54C238.92,406.20 239.25,406.00 242.66,406.00C244.80,406.00 247.46,406.64 248.57,407.41C249.68,408.19 255.07,410.70 260.54,413.00C267.36,415.86 271.99,417.18 275.21,417.20C278.84,417.22 281.47,416.36 286.71,413.42C290.44,411.33 295.68,408.54 298.34,407.23C301.00,405.91 303.36,405.03 303.60,405.26C303.83,405.50 303.05,408.02 301.87,410.87C300.68,413.72 300.02,416.35 300.39,416.73C300.77,417.10 303.83,414.65 307.20,411.28C313.33,405.15 313.33,405.15 309.41,404.45C307.26,404.06 304.98,403.33 304.35,402.83C303.71,402.32 300.11,400.98 296.35,399.85C291.95,398.52 286.45,397.75 281.00,397.69C274.46,397.61 270.54,398.19 264.00,400.20C259.32,401.64 254.04,403.12 252.25,403.49C250.46,403.86 249.00,403.92 249.00,403.63C249.00,403.34 252.71,401.09 257.25,398.62C261.79,396.15 269.10,392.93 273.50,391.45C280.83,388.99 282.43,388.81 292.50,389.29C299.68,389.64 305.42,390.50 309.02,391.78C312.06,392.85 316.79,394.88 319.54,396.27C322.29,397.66 327.82,401.37 331.83,404.50C335.84,407.64 342.02,413.61 345.57,417.77C349.12,421.93 354.80,429.88 358.18,435.42C361.56,440.96 364.76,445.95 365.29,446.50C365.91,447.14 366.04,444.82 365.64,440.00C365.30,435.88 363.93,426.88 362.59,420.00C361.26,413.12 359.61,405.25 358.92,402.50C358.24,399.75 354.41,388.50 350.41,377.50C346.41,366.50 341.94,354.60 340.48,351.06C339.02,347.52 335.89,340.77 333.53,336.06C331.16,331.35 326.68,323.96 323.57,319.64C320.47,315.31 315.20,308.74 311.87,305.02C308.55,301.30 302.75,295.92 299.00,293.07C295.18,290.17 291.47,286.40 290.58,284.54C289.71,282.70 289.00,280.10 289.00,278.75C289.00,277.40 289.49,274.88 290.10,273.15C290.70,271.42 291.54,270.22 291.97,270.48C292.39,270.74 293.02,272.69 293.35,274.82C293.69,276.94 295.04,279.83 296.34,281.23C297.89,282.90 301.73,284.71 307.39,286.44C312.82,288.10 317.26,290.16 319.28,291.96C321.05,293.54 322.19,295.14 321.82,295.51C321.45,295.89 317.98,295.47 314.12,294.60C310.26,293.72 306.63,293.00 306.05,293.00C305.47,293.00 305.00,293.43 305.00,293.95C305.00,294.48 307.14,296.53 309.75,298.51C312.36,300.49 317.15,304.68 320.39,307.81C323.63,310.94 328.51,316.65 331.23,320.50C333.95,324.35 337.89,330.88 339.97,335.00C342.05,339.12 346.33,348.57 349.48,356.00C352.63,363.43 355.61,369.93 356.10,370.45C356.64,371.02 357.00,367.75 357.00,362.38C357.00,357.42 357.49,350.70 358.09,347.43C358.68,344.17 360.56,338.88 362.26,335.68C363.96,332.48 367.37,328.08 369.83,325.92C372.29,323.75 374.49,322.15 374.71,322.37C374.93,322.59 373.35,325.49 371.20,328.81C369.06,332.13 366.22,338.14 364.90,342.17C362.86,348.40 362.50,351.45 362.52,362.50C362.53,372.19 363.00,377.03 364.36,381.50C365.36,384.80 366.88,388.29 367.74,389.25C368.61,390.21 369.64,391.00 370.04,391.00C370.44,391.00 370.54,385.26 370.26,378.25C369.86,368.47 370.12,364.05 371.35,359.27C372.23,355.84 374.15,350.66 375.62,347.77C377.09,344.87 380.92,338.58 384.15,333.78C387.37,328.99 391.68,323.93 393.73,322.53C395.79,321.14 397.75,320.00 398.09,320.00C398.43,320.00 399.12,325.51 399.61,332.25C400.10,338.99 400.46,348.55 400.40,353.50C400.35,358.78 399.59,364.98 398.57,368.50C397.62,371.80 395.22,377.43 393.25,381.00C391.27,384.57 386.69,390.48 383.06,394.12C378.79,398.41 375.33,400.99 373.25,401.45C371.47,401.84 369.85,402.46 369.63,402.83C369.42,403.20 370.52,410.93 372.08,420.00C373.63,429.07 375.37,441.45 375.93,447.50C376.50,453.55 378.10,472.90 379.49,490.50C380.88,508.10 382.48,527.90 383.04,534.50C383.61,541.10 384.99,552.06 386.11,558.87C387.23,565.67 388.52,572.19 388.97,573.37C389.61,575.01 389.92,575.16 390.32,574.00C390.60,573.17 391.31,558.55 391.89,541.50C392.68,518.14 393.55,506.44 395.40,494.00C396.75,484.93 399.24,470.98 400.94,463.00C402.64,455.02 405.64,442.43 407.60,435.00C409.56,427.57 413.21,415.20 415.71,407.50C418.21,399.80 422.24,388.55 424.67,382.50C427.11,376.45 435.42,358.81 443.15,343.29C450.87,327.78 457.02,314.55 456.80,313.90C456.53,313.08 453.75,312.77 447.95,312.90C440.45,313.07 438.89,312.78 434.07,310.30C430.36,308.39 428.06,306.39 426.82,304.02C425.68,301.83 425.00,298.39 425.00,294.80C425.00,291.40 425.83,286.98 427.04,283.91C428.16,281.07 428.94,278.63 428.79,278.49C428.63,278.35 426.22,277.10 423.44,275.70C420.65,274.30 416.74,271.35 414.75,269.14C412.75,266.93 410.56,263.26 409.87,260.98C408.89,257.68 408.89,255.88 409.87,252.21C410.54,249.68 412.54,245.59 414.31,243.13C416.07,240.68 420.11,236.89 423.28,234.73C429.04,230.80 429.04,230.80 427.05,227.58C425.95,225.81 424.77,221.92 424.42,218.93C424.06,215.82 424.28,211.68 424.93,209.24C425.57,206.89 427.49,203.38 429.20,201.43C430.91,199.48 434.15,196.93 436.41,195.76C439.20,194.31 442.41,193.62 446.50,193.58C449.80,193.56 454.36,193.91 456.63,194.38C460.75,195.22 460.75,195.22 463.23,189.81C464.59,186.84 467.14,182.77 468.90,180.77C470.65,178.77 474.14,176.14 476.65,174.93C479.86,173.37 482.94,172.74 487.05,172.80C491.14,172.86 494.54,173.67 498.45,175.52C502.04,177.22 505.65,180.05 508.62,183.49C513.23,188.82 513.23,188.82 518.86,184.53C521.96,182.18 526.03,179.74 527.90,179.12C529.77,178.51 534.08,178.00 537.47,178.00C540.87,178.00 545.72,178.71 548.27,179.58C550.81,180.44 554.95,182.96 557.46,185.17C559.97,187.39 563.12,191.07 564.44,193.35C565.77,195.63 567.36,200.31 567.97,203.74C568.79,208.34 568.79,211.09 567.96,214.24C567.34,216.58 565.52,220.56 563.92,223.09C562.31,225.61 561.00,227.97 561.00,228.34C561.00,228.70 563.14,229.00 565.75,229.01C568.36,229.01 572.30,229.50 574.50,230.10C576.70,230.69 580.65,232.55 583.28,234.21C586.18,236.05 589.13,239.07 590.77,241.87C592.88,245.47 593.45,247.70 593.38,251.99C593.33,255.02 592.59,259.14 591.74,261.14C590.89,263.14 588.49,266.66 586.42,268.96C584.34,271.26 581.01,273.97 579.02,274.99C577.03,276.00 573.74,277.15 571.70,277.53C569.67,277.91 568.00,278.43 568.00,278.68C568.00,278.93 569.11,280.59 570.47,282.37C571.83,284.15 573.93,287.84 575.13,290.56C576.69,294.07 577.33,297.52 577.35,302.50C577.37,307.71 576.84,310.53 575.28,313.54C574.12,315.77 571.07,319.52 568.51,321.88C565.95,324.25 561.75,327.12 559.18,328.27C555.68,329.84 552.65,330.34 547.15,330.25C540.98,330.15 538.63,329.57 532.48,326.65C528.45,324.74 524.93,323.40 524.65,323.68C524.37,323.96 522.98,326.57 521.56,329.47C520.14,332.37 516.72,336.86 513.96,339.44C511.20,342.03 506.36,345.33 503.22,346.77C499.72,348.39 495.15,349.56 491.43,349.81C486.71,350.12 484.19,349.71 480.13,347.96C476.48,346.39 473.12,343.74 469.01,339.18C463.93,333.56 462.90,332.84 461.54,333.96C460.68,334.68 457.70,339.03 454.92,343.64C452.14,348.24 447.02,357.96 443.53,365.25C440.05,372.54 434.72,384.80 431.68,392.50C428.65,400.20 425.19,409.75 423.99,413.73C422.80,417.70 421.99,421.48 422.21,422.12C422.42,422.76 427.03,417.58 432.44,410.60C437.85,403.63 445.98,394.22 450.49,389.71C455.01,385.19 461.48,379.48 464.87,377.00C468.27,374.52 473.85,371.05 477.27,369.28C480.70,367.50 486.83,365.31 490.90,364.39C496.47,363.14 501.03,362.87 509.40,363.29C516.84,363.66 524.62,364.87 533.00,366.94C539.88,368.65 549.10,371.13 553.50,372.46C557.90,373.79 563.22,375.15 565.31,375.49C567.41,375.84 568.98,376.55 568.81,377.08C568.63,377.62 561.06,384.38 551.99,392.13C542.92,399.87 532.12,408.19 528.00,410.63C523.88,413.06 517.58,415.97 514.00,417.10C509.36,418.56 504.78,419.15 498.00,419.15C492.29,419.15 485.74,418.46 481.59,417.41C477.80,416.46 470.02,413.28 464.32,410.34C458.62,407.40 453.02,405.00 451.88,405.00C450.74,405.00 448.53,405.91 446.98,407.02C445.42,408.13 441.24,412.51 437.70,416.77C434.15,421.02 428.75,428.23 425.70,432.79C422.65,437.34 418.71,444.54 416.94,448.79C415.17,453.03 412.44,461.68 410.87,468.00C409.30,474.32 406.92,486.70 405.57,495.50C404.22,504.30 402.85,514.65 402.53,518.50C401.95,525.40 401.96,525.47 403.72,523.05C404.70,521.71 407.84,517.43 410.70,513.55C413.56,509.67 418.22,502.77 421.05,498.21C423.87,493.64 428.57,487.34 431.49,484.21C434.41,481.07 439.20,477.08 442.15,475.34C445.09,473.61 448.62,471.87 450.00,471.48C451.96,470.92 451.64,471.41 448.50,473.73C446.30,475.35 442.62,478.74 440.32,481.24C438.02,483.75 435.21,487.63 434.07,489.86C432.93,492.09 432.00,494.45 432.00,495.09C432.00,495.73 433.46,495.07 435.25,493.62C437.04,492.17 441.18,489.11 444.45,486.82C447.72,484.53 452.67,481.76 455.45,480.66C459.54,479.04 462.68,478.68 472.00,478.76C481.39,478.85 485.61,479.42 495.00,481.91C501.32,483.58 509.34,485.74 512.82,486.72C516.30,487.70 519.12,488.85 519.10,489.29C519.07,489.72 511.95,494.83 503.27,500.64C494.60,506.46 484.80,512.61 481.50,514.31C476.38,516.96 474.16,517.47 466.31,517.82C459.01,518.15 455.73,517.81 450.31,516.16C446.57,515.02 440.49,512.27 436.81,510.05C431.39,506.77 429.67,506.18 427.76,506.90C426.46,507.39 422.95,510.47 419.95,513.74C416.95,517.01 412.98,522.23 411.12,525.35C409.27,528.47 406.71,533.86 405.45,537.34C404.19,540.82 402.67,547.15 402.08,551.41C401.48,555.66 401.00,565.52 401.01,573.32C401.02,581.12 401.48,592.90 402.05,599.50C402.62,606.10 403.76,616.23 404.59,622.00C405.42,627.77 407.90,641.50 410.11,652.50C412.33,663.50 415.49,677.67 417.15,684.00C418.80,690.33 422.87,705.12 426.19,716.88C431.06,734.15 431.95,738.42 430.86,739.11C430.11,739.58 428.15,739.93 426.50,739.89zM464.87,501.96C466.04,501.99 466.04,501.75 464.87,500.34C463.61,498.82 464.02,498.75 469.97,499.42C476.45,500.15 476.45,500.15 474.51,498.01C472.86,496.19 472.79,495.74 474.04,494.95C474.84,494.45 479.77,493.98 485.00,493.92C490.23,493.86 496.98,493.29 500.00,492.65C503.02,492.02 505.38,491.05 505.23,490.50C505.08,489.95 503.73,489.16 502.23,488.75C500.73,488.33 494.32,487.72 488.00,487.39C478.63,486.90 474.70,487.16 466.80,488.80C461.40,489.93 454.78,492.08 451.86,493.66C448.99,495.22 446.49,496.95 446.31,497.50C446.12,498.10 447.93,498.37 450.87,498.16C454.36,497.92 456.85,498.41 459.62,499.87C461.76,500.99 464.12,501.93 464.87,501.96zM348.50,486.88C350.04,486.91 349.28,485.78 345.22,482.00C342.32,479.30 336.53,474.83 332.34,472.09C328.16,469.34 320.99,465.74 316.42,464.09C311.85,462.43 305.14,460.56 301.50,459.93C297.87,459.29 294.65,459.02 294.35,459.32C294.05,459.62 294.07,460.31 294.41,460.85C294.74,461.39 298.95,463.70 303.76,465.98C308.57,468.27 314.98,471.39 318.00,472.93C321.02,474.46 324.85,476.05 326.49,476.44C328.14,476.84 330.05,477.63 330.74,478.20C331.43,478.78 332.00,480.09 332.00,481.12C332.00,482.57 332.75,483.01 335.25,483.03C337.04,483.04 340.30,483.90 342.50,484.95C344.70,485.99 347.40,486.86 348.50,486.88zM272.00,412.96C271.18,412.96 268.51,412.05 266.08,410.95C263.19,409.64 262.00,408.60 262.64,407.96C263.18,407.42 268.54,405.86 274.56,404.50C280.58,403.13 287.01,402.01 288.86,402.01C292.22,402.00 292.22,402.00 286.98,405.61C284.09,407.59 279.88,410.06 277.62,411.09C275.35,412.12 272.82,412.96 272.00,412.96zM486.45,402.97C488.06,403.00 487.71,402.28 484.50,399.00C481.21,395.63 480.91,395.00 482.60,395.00C483.70,395.00 489.28,396.57 495.00,398.50C500.72,400.43 506.30,402.00 507.40,402.00C509.09,402.00 508.79,401.37 505.50,398.00C501.59,394.00 501.59,394.00 510.25,394.00C517.12,394.00 520.73,393.40 527.70,391.10C532.54,389.50 541.22,386.11 546.99,383.56C552.76,381.00 557.89,378.51 558.39,378.01C558.92,377.48 558.32,376.91 556.89,376.61C555.58,376.33 546.85,374.70 537.50,372.99C528.15,371.28 515.55,369.63 509.50,369.33C501.25,368.92 496.78,369.19 491.61,370.41C487.83,371.30 481.65,373.65 477.88,375.63C474.12,377.61 467.75,382.03 463.74,385.46C459.72,388.89 455.63,392.92 454.64,394.43C453.65,395.94 453.01,397.34 453.22,397.55C453.43,397.76 458.28,395.02 464.01,391.45C470.74,387.25 477.78,383.84 483.95,381.78C493.06,378.74 494.24,378.59 509.50,378.55C519.37,378.52 527.71,379.01 531.26,379.82C534.43,380.55 536.79,381.52 536.51,381.98C536.23,382.44 532.96,383.31 529.25,383.90C525.54,384.50 516.65,385.47 509.50,386.05C502.35,386.63 494.54,387.55 492.15,388.08C489.75,388.62 484.24,390.43 479.90,392.10C475.55,393.77 472.00,395.54 472.00,396.02C472.00,396.49 474.81,398.25 478.25,399.92C481.69,401.58 485.38,402.96 486.45,402.97zM298.00,377.94C297.73,377.93 292.77,375.88 287.00,373.38C281.23,370.88 272.61,367.52 267.85,365.91C261.92,363.91 257.22,363.00 252.88,363.00C247.05,363.00 245.93,363.39 238.44,367.98C233.78,370.84 227.59,373.66 223.91,374.60C219.40,375.76 215.42,376.07 210.50,375.65C206.65,375.33 200.59,374.11 197.04,372.94C193.49,371.77 187.41,369.22 183.54,367.27C179.67,365.32 174.07,362.88 171.09,361.86C168.12,360.84 164.52,359.99 163.09,359.98C161.67,359.98 159.84,359.55 159.04,359.05C157.79,358.26 157.85,357.83 159.44,356.07C160.46,354.93 165.78,351.26 171.26,347.89C176.73,344.53 183.88,340.69 187.13,339.37C190.39,338.04 196.22,336.29 200.09,335.48C203.96,334.67 209.29,334.00 211.93,334.00C214.57,334.00 219.15,334.45 222.11,334.99C225.08,335.54 231.22,337.82 235.77,340.05C241.42,342.83 246.10,346.12 250.56,350.45C256.54,356.26 257.98,357.10 267.75,360.47C273.61,362.49 281.35,365.92 284.95,368.09C288.55,370.25 293.07,373.36 295.00,374.99C296.93,376.61 298.27,377.94 298.00,377.94zM379.32,368.00C379.66,368.00 381.79,365.55 384.05,362.55C386.80,358.91 387.97,356.48 387.58,355.24C387.25,354.22 388.12,350.07 389.49,346.02C390.87,341.97 392.00,336.91 392.00,334.79C392.00,331.23 391.84,331.01 389.99,332.01C388.88,332.60 386.88,334.75 385.55,336.79C384.22,338.83 382.39,343.43 381.47,347.00C380.56,350.57 379.56,356.76 379.26,360.75C378.96,364.74 378.99,368.00 379.32,368.00zM306.36,362.93C302.04,362.90 296.70,362.30 294.50,361.60C292.30,360.90 288.70,359.39 286.50,358.25C284.30,357.11 281.49,355.22 280.26,354.06C279.03,352.89 277.40,350.72 276.65,349.22C275.90,347.72 274.98,345.25 274.61,343.71C274.24,342.18 274.45,339.05 275.07,336.75C275.74,334.24 277.76,331.01 280.11,328.66C284.02,324.74 284.02,324.74 291.76,325.25C296.02,325.52 300.29,326.08 301.25,326.48C302.55,327.03 303.00,326.74 303.00,325.36C303.00,324.34 299.74,320.39 295.75,316.59C291.76,312.79 285.20,307.52 281.17,304.88C277.14,302.23 270.76,299.07 266.98,297.86C260.12,295.65 260.12,295.65 250.96,298.46C243.34,300.80 240.66,301.18 235.14,300.70C231.49,300.38 226.53,299.42 224.13,298.56C221.72,297.71 217.16,295.31 213.99,293.25C210.82,291.19 205.93,288.26 203.11,286.75C200.30,285.24 198.00,283.49 198.00,282.87C198.00,282.11 199.38,281.95 202.25,282.39C204.59,282.75 209.20,284.43 212.50,286.13C215.80,287.84 220.67,290.38 223.32,291.78C226.96,293.70 229.57,294.31 234.00,294.27C238.07,294.23 241.56,293.43 245.43,291.66C248.49,290.26 251.00,288.58 251.00,287.93C251.00,287.13 249.96,286.96 247.75,287.41C245.96,287.78 241.04,288.35 236.80,288.68C229.80,289.23 228.61,289.05 223.59,286.59C219.78,284.72 216.67,282.13 213.53,278.19C211.03,275.06 208.03,270.02 206.86,267.00C205.28,262.91 204.71,259.11 204.64,252.20C204.56,244.99 204.87,242.70 206.02,241.98C207.26,241.21 207.61,242.34 208.19,249.05C208.64,254.37 209.75,258.96 211.49,262.77C212.93,265.92 215.55,270.02 217.30,271.87C219.06,273.73 222.75,276.31 225.50,277.60C228.25,278.90 230.65,279.52 230.83,278.98C231.02,278.44 230.01,275.91 228.58,273.37C227.16,270.83 226.00,268.36 226.00,267.88C226.00,267.41 228.91,268.45 232.47,270.21C236.03,271.96 239.22,273.11 239.58,272.76C239.93,272.40 237.92,268.86 235.12,264.88C232.32,260.90 230.22,257.44 230.47,257.20C230.71,256.96 232.92,257.94 235.38,259.38C237.84,260.82 240.38,262.00 241.03,262.00C241.82,262.00 242.08,260.17 241.85,256.25C241.55,251.34 241.74,250.54 243.16,250.77C244.33,250.97 245.34,249.64 246.57,246.27C247.54,243.65 248.71,241.07 249.17,240.55C249.62,240.03 250.00,238.51 250.00,237.17C250.00,235.83 249.09,233.27 247.98,231.47C246.88,229.68 244.43,227.04 242.55,225.61C240.67,224.17 238.12,222.89 236.88,222.75C234.86,222.53 234.46,223.23 233.00,229.54C232.11,233.41 231.07,237.08 230.69,237.70C230.22,238.46 226.73,238.65 219.75,238.29C212.07,237.90 209.19,237.38 208.25,236.20C207.56,235.33 207.00,233.97 207.00,233.17C207.00,231.97 208.54,231.84 216.25,232.40C225.50,233.07 225.50,233.07 228.87,225.53C231.18,220.38 232.79,218.00 233.97,218.00C234.91,218.00 238.12,218.84 241.09,219.87C244.07,220.89 248.64,223.03 251.25,224.61C255.52,227.19 256.00,227.85 256.00,231.12C256.00,233.11 255.38,236.49 254.63,238.62C253.88,240.76 252.71,245.81 252.03,249.85C251.29,254.19 251.06,259.77 251.46,263.50C251.83,266.97 252.69,270.57 253.37,271.50C254.43,272.95 255.17,271.66 258.53,262.50C260.74,256.45 263.29,251.21 264.40,250.43C266.24,249.15 266.28,248.65 265.11,242.32C264.43,238.61 262.94,233.40 261.80,230.76C260.66,228.11 259.95,225.71 260.23,225.44C260.51,225.16 262.95,226.68 265.65,228.82C268.35,230.95 272.40,234.91 274.65,237.60C276.89,240.30 279.80,244.53 281.10,247.00C283.02,250.64 283.47,253.02 283.47,259.50C283.47,266.00 283.02,268.35 281.09,272.00C279.78,274.48 275.51,279.50 271.60,283.17C267.70,286.84 264.82,290.15 265.20,290.54C265.59,290.92 267.12,290.93 268.61,290.56C270.10,290.19 272.91,288.29 274.86,286.34C278.41,282.79 278.41,282.79 280.27,285.08C281.45,286.54 281.91,288.22 281.54,289.68C281.05,291.65 283.77,294.78 299.80,310.75C313.72,324.61 320.25,331.93 324.82,338.81C328.21,343.93 331.25,349.15 331.57,350.40C331.88,351.66 332.00,354.45 331.82,356.60C331.52,360.23 331.29,360.49 328.50,360.37C326.85,360.29 322.96,360.86 319.86,361.62C316.75,362.38 310.68,362.97 306.36,362.93zM211.46,362.00C212.34,362.00 215.63,360.70 218.78,359.11C221.93,357.53 226.41,355.65 228.75,354.96C231.09,354.26 233.00,353.34 233.00,352.92C233.00,352.50 231.54,351.68 229.75,351.11C227.96,350.53 222.68,349.18 218.00,348.10C213.32,347.03 206.32,345.84 202.44,345.47C198.03,345.04 193.15,345.24 189.44,346.01C186.17,346.68 181.81,347.90 179.75,348.72C177.69,349.55 176.00,350.56 176.00,350.99C176.00,351.41 180.27,352.08 185.50,352.47C190.72,352.87 195.24,353.58 195.54,354.06C195.84,354.55 195.34,356.08 194.43,357.47C193.52,358.86 192.98,360.00 193.25,360.00C193.51,360.00 196.70,358.65 200.34,357.00C203.98,355.35 208.54,354.00 210.48,354.00C212.42,354.00 214.00,354.49 214.00,355.10C214.00,355.70 213.07,357.50 211.93,359.10C210.18,361.56 210.11,362.00 211.46,362.00zM302.92,354.98C306.45,354.99 312.16,354.51 315.60,353.91C319.05,353.31 322.66,352.23 323.64,351.52C325.30,350.31 325.24,350.01 322.66,346.62C321.15,344.64 317.39,340.29 314.30,336.95C311.21,333.62 307.39,330.22 305.81,329.40C304.23,328.59 300.11,327.66 296.65,327.33C290.62,326.77 290.21,326.88 286.69,329.96C284.49,331.90 282.62,334.70 282.00,336.99C281.37,339.33 281.32,341.71 281.87,343.15C282.36,344.44 284.06,346.80 285.63,348.39C287.21,349.98 290.30,352.11 292.50,353.12C295.03,354.28 298.85,354.96 302.92,354.98zM352.15,339.00C351.54,339.00 349.71,336.68 348.09,333.84C346.47,331.00 344.85,326.55 344.49,323.95C344.14,321.35 344.30,317.58 344.85,315.57C345.41,313.55 347.00,309.98 348.38,307.62C349.76,305.26 352.90,301.68 355.36,299.67C357.82,297.65 360.15,296.00 360.53,296.00C360.91,296.00 360.92,297.24 360.55,298.75C360.18,300.26 358.13,304.43 355.99,308.00C353.85,311.57 351.68,316.38 351.17,318.68C350.61,321.20 350.60,324.58 351.14,327.18C351.64,329.56 352.32,333.19 352.65,335.25C353.05,337.70 352.88,339.00 352.15,339.00zM497.46,339.00C498.09,339.00 500.61,337.73 503.05,336.18C505.50,334.62 509.03,331.61 510.89,329.48C512.76,327.35 515.18,323.59 516.27,321.13C517.81,317.64 518.14,315.21 517.77,310.03C517.47,305.80 516.30,301.19 514.54,297.26C513.02,293.87 510.91,290.33 509.86,289.38C508.45,288.10 507.66,287.94 506.83,288.77C506.21,289.39 505.41,291.61 505.05,293.70C504.39,297.50 504.39,297.50 502.17,293.25C500.96,290.91 499.39,289.00 498.69,289.00C498.00,289.00 496.01,291.81 494.27,295.25C491.12,301.50 491.12,301.50 491.06,294.31C491.03,290.25 490.52,286.82 489.91,286.44C489.31,286.07 486.83,287.71 484.41,290.09C481.98,292.47 480.00,294.21 480.00,293.95C480.00,293.70 480.42,292.03 480.93,290.24C481.64,287.76 481.55,287.00 480.55,287.00C479.82,287.00 477.71,288.69 475.85,290.75C473.99,292.81 471.47,296.11 470.26,298.08C469.04,300.05 467.33,304.46 466.45,307.88C465.18,312.86 465.07,315.11 465.93,319.13C466.53,321.89 467.51,325.13 468.13,326.33C468.74,327.52 470.62,329.96 472.32,331.75C474.01,333.54 476.34,335.00 477.49,335.00C478.65,335.00 481.35,333.20 483.50,331.00C485.65,328.80 487.76,327.00 488.18,327.00C488.61,327.00 489.92,328.91 491.10,331.25C492.27,333.59 493.93,336.29 494.77,337.25C495.62,338.21 496.83,339.00 497.46,339.00zM546.25,318.92C552.00,319.00 552.00,319.00 552.00,314.74C552.00,312.40 551.58,309.03 551.07,307.24C550.56,305.46 550.47,304.00 550.87,304.00C551.28,304.00 553.77,305.37 556.40,307.04C560.07,309.37 561.51,309.82 562.55,308.96C563.29,308.35 564.71,305.74 565.70,303.17C566.82,300.27 567.47,296.03 567.43,292.00C567.37,287.44 566.71,284.27 565.22,281.38C564.05,279.11 561.70,276.08 560.00,274.65C558.30,273.22 553.89,271.10 550.20,269.94C546.52,268.78 540.91,267.58 537.75,267.28C533.35,266.85 532.00,267.03 532.00,268.06C532.00,268.79 533.24,270.72 534.75,272.35C536.80,274.56 537.03,275.14 535.66,274.65C534.64,274.29 532.74,273.72 531.42,273.39C529.71,272.96 528.83,273.27 528.37,274.47C527.99,275.46 528.61,277.33 529.88,279.06C531.07,280.66 532.47,283.10 532.99,284.49C533.52,285.87 533.73,287.00 533.46,287.00C533.19,287.00 530.49,285.60 527.47,283.89C522.99,281.37 521.68,281.02 520.48,282.02C519.38,282.93 519.09,284.93 519.34,289.87C519.52,293.52 520.48,298.93 521.47,301.91C522.63,305.41 524.75,308.80 527.47,311.52C529.78,313.83 533.66,316.43 536.09,317.28C538.51,318.14 543.09,318.88 546.25,318.92zM391.95,313.99C390.64,314.00 390.21,310.91 389.19,294.20C388.52,283.31 386.89,267.00 385.57,257.95C384.25,248.90 381.80,236.10 380.13,229.50C378.45,222.90 376.17,214.85 375.05,211.61C373.93,208.37 372.55,205.16 371.99,204.49C371.18,203.51 369.66,203.53 364.73,204.59C361.30,205.33 355.15,205.95 351.07,205.96C346.98,205.98 341.01,205.26 337.80,204.36C333.95,203.28 330.44,201.38 327.44,198.74C324.95,196.55 321.85,192.67 320.56,190.13C318.21,185.50 318.21,185.50 305.85,185.50C294.39,185.50 293.10,185.30 287.88,182.74C284.79,181.22 280.16,178.13 277.59,175.87C275.02,173.61 271.96,169.90 270.79,167.63C269.18,164.50 268.66,161.68 268.66,156.00C268.65,151.46 269.35,146.40 270.43,143.18C271.41,140.25 274.45,134.51 277.19,130.41C282.16,122.97 282.16,122.97 277.83,118.16C275.45,115.51 272.30,111.12 270.83,108.42C269.37,105.71 267.42,99.90 266.51,95.50C265.47,90.48 265.09,85.62 265.47,82.46C265.81,79.68 267.43,75.07 269.07,72.20C270.75,69.25 274.11,65.46 276.78,63.49C279.37,61.57 284.58,59.04 288.35,57.87C293.76,56.19 296.54,55.88 301.56,56.40C307.73,57.03 307.97,56.96 309.68,54.27C310.64,52.75 312.94,49.61 314.79,47.30C316.64,44.99 320.46,41.95 323.28,40.55C326.53,38.93 330.05,38.00 332.95,38.01C335.45,38.02 339.77,38.63 342.55,39.37C345.32,40.11 348.55,41.22 349.72,41.85C351.62,42.87 352.42,42.39 357.11,37.48C360.00,34.45 364.79,30.78 367.75,29.34C371.93,27.29 374.60,26.71 379.81,26.72C383.55,26.73 388.10,27.41 390.14,28.27C392.14,29.11 395.68,31.52 398.01,33.62C400.33,35.72 403.57,39.82 405.21,42.72C407.94,47.55 408.41,47.93 410.84,47.25C412.30,46.84 417.34,46.52 422.04,46.54C429.04,46.58 431.48,47.03 435.54,49.04C439.19,50.85 441.03,52.56 442.49,55.50C444.00,58.54 444.48,61.54 444.49,68.00C444.50,72.67 444.15,78.15 443.72,80.16C442.95,83.81 442.97,83.84 448.89,87.43C452.15,89.42 456.19,92.60 457.86,94.50C459.53,96.40 461.21,99.58 461.58,101.57C461.95,103.56 461.99,107.45 461.66,110.23C461.33,113.00 459.77,118.02 458.18,121.38C456.60,124.75 453.72,129.38 451.79,131.68C448.27,135.86 448.27,135.86 448.76,145.21C449.19,153.35 448.96,155.22 447.00,159.78C445.76,162.66 443.14,166.43 441.17,168.16C439.20,169.88 435.10,172.45 432.05,173.85C427.30,176.04 424.73,176.46 414.17,176.82C406.21,177.10 401.73,177.65 401.54,178.37C401.37,178.99 400.70,181.44 400.06,183.81C399.41,186.18 397.27,189.91 395.30,192.09C393.33,194.27 390.43,196.81 388.86,197.74C386.90,198.90 386.00,200.23 386.01,201.97C386.01,203.36 387.37,211.47 389.03,220.00C390.68,228.53 392.92,242.25 393.99,250.50C395.07,258.75 396.41,270.90 396.96,277.50C397.52,284.10 397.98,294.74 397.99,301.13C398.00,312.36 397.92,312.79 395.75,313.37C394.51,313.70 392.80,313.98 391.95,313.99zM339.15,302.89C338.12,304.20 337.04,304.87 336.75,304.39C336.45,303.90 336.81,300.12 337.55,296.00C338.29,291.88 338.92,285.44 338.95,281.71C338.99,276.77 338.44,273.83 336.96,270.93C335.52,268.09 332.92,265.65 327.96,262.48C321.88,258.58 321.00,257.63 321.00,255.01C321.00,253.35 321.45,252.00 321.99,252.00C322.53,252.00 326.05,253.97 329.80,256.37C333.56,258.78 338.30,262.71 340.35,265.10C342.51,267.63 344.74,271.73 345.66,274.89C346.69,278.43 347.03,282.09 346.64,285.36C346.32,288.12 344.91,292.66 343.53,295.44C342.14,298.22 340.17,301.57 339.15,302.89zM454.42,301.63C460.24,301.35 460.44,301.24 465.92,295.41C468.99,292.15 472.96,287.27 474.75,284.57C476.54,281.87 478.00,279.28 478.00,278.83C478.00,278.37 476.64,278.00 474.97,278.00C473.30,278.00 470.31,278.68 468.31,279.51C466.32,280.35 464.48,280.81 464.22,280.55C463.96,280.29 465.59,277.88 467.85,275.18C470.10,272.49 471.66,269.99 471.31,269.64C470.96,269.29 468.69,269.00 466.27,269.00C463.86,269.00 458.65,269.49 454.69,270.09C449.76,270.84 446.00,272.13 442.74,274.20C440.12,275.86 437.13,278.41 436.09,279.87C435.06,281.33 433.68,284.49 433.03,286.89C432.38,289.30 432.12,292.33 432.44,293.62C432.80,295.04 434.61,296.78 437.00,298.00C439.18,299.11 442.66,300.45 444.73,300.96C446.81,301.48 451.16,301.78 454.42,301.63zM504.18,275.51C506.76,275.29 510.61,274.22 512.75,273.13C514.89,272.04 518.26,269.35 520.24,267.15C522.22,264.96 524.57,262.07 525.45,260.72C526.33,259.38 526.76,257.54 526.42,256.64C526.04,255.67 524.66,255.00 523.02,255.00C521.49,255.00 519.73,255.62 519.10,256.38C518.47,257.13 518.08,259.24 518.23,261.05C518.46,263.81 517.96,264.72 515.18,266.63C513.35,267.88 509.88,269.20 507.46,269.56C504.99,269.93 500.77,269.68 497.79,268.99C494.88,268.31 490.35,266.61 487.72,265.21C485.10,263.80 482.06,261.22 480.97,259.46C479.89,257.70 479.00,255.33 479.00,254.19C479.00,253.05 479.41,251.86 479.91,251.55C480.41,251.24 482.20,251.78 483.89,252.75C486.92,254.48 486.97,254.47 489.70,251.75C492.46,249.00 492.46,249.00 493.51,252.75C494.34,255.72 495.10,256.56 497.18,256.81C499.03,257.02 500.59,256.28 502.43,254.31C505.04,251.50 505.04,251.50 504.43,254.56C504.03,256.58 504.30,258.00 505.23,258.78C506.32,259.68 507.13,259.59 508.82,258.41C510.02,257.57 512.83,254.20 515.06,250.92C517.29,247.63 519.57,245.24 520.14,245.59C520.73,245.95 520.92,247.64 520.57,249.49C520.04,252.29 520.27,252.84 522.21,253.34C523.45,253.67 524.87,253.53 525.36,253.04C525.85,252.55 525.99,251.10 525.67,249.82C525.34,248.55 523.73,245.38 522.09,242.80C520.23,239.87 517.56,237.31 515.01,236.00C512.76,234.86 508.44,233.46 505.42,232.90C501.06,232.09 498.80,232.21 494.53,233.45C490.66,234.57 487.86,236.30 484.58,239.58C481.24,242.91 479.58,245.65 478.39,249.72C477.08,254.23 476.99,256.02 477.91,259.10C478.54,261.20 480.21,264.29 481.63,265.97C483.05,267.66 486.23,270.22 488.69,271.66C491.15,273.11 494.59,274.65 496.33,275.10C498.07,275.54 501.61,275.73 504.18,275.51zM444.82,269.91C447.29,269.98 449.34,269.00 452.82,266.09C455.39,263.94 459.19,261.49 461.25,260.64C463.31,259.80 465.00,258.66 465.00,258.11C465.00,257.57 462.86,256.83 460.25,256.48C457.64,256.13 454.38,255.48 453.00,255.04C450.50,254.24 450.50,254.24 453.32,253.12C454.86,252.50 457.56,251.97 459.32,251.93C461.07,251.89 463.38,251.51 464.46,251.09C466.22,250.41 465.96,249.98 462.06,247.16C459.66,245.42 457.37,244.00 456.97,244.00C456.56,244.00 456.00,243.10 455.71,242.00C455.39,240.76 452.78,238.87 448.84,237.00C444.86,235.12 440.90,234.00 438.20,234.00C435.84,234.00 432.69,234.63 431.20,235.41C429.72,236.19 427.31,238.10 425.85,239.66C424.40,241.22 422.26,244.07 421.11,246.00C419.95,247.93 419.01,251.17 419.00,253.22C419.00,255.96 419.82,257.87 422.15,260.52C423.88,262.49 426.69,264.83 428.40,265.73C430.10,266.63 433.75,267.91 436.50,268.59C439.25,269.27 442.99,269.87 444.82,269.91zM565.73,266.62C571.04,266.44 572.40,265.99 574.90,263.59C576.52,262.05 579.22,258.18 580.92,255.00C582.61,251.82 584.00,247.80 584.00,246.05C584.00,243.76 583.11,242.07 580.75,239.91C578.96,238.28 575.28,236.28 572.57,235.47C569.86,234.66 564.97,234.00 561.71,234.00C557.37,234.00 554.45,234.68 550.74,236.54C547.96,237.93 543.51,240.90 540.85,243.13C538.18,245.36 536.00,247.82 536.00,248.59C536.00,249.60 537.34,250.00 540.75,250.02C543.36,250.02 546.07,250.39 546.76,250.83C547.61,251.37 546.38,252.38 543.01,253.90C539.90,255.30 538.00,256.80 538.00,257.83C538.00,259.06 540.85,260.47 548.75,263.17C557.27,266.08 560.79,266.79 565.73,266.62zM468.79,238.98C470.84,239.00 470.95,238.78 469.88,236.75C469.22,235.51 467.57,233.03 466.20,231.22C464.84,229.42 463.98,227.69 464.30,227.37C464.61,227.05 467.58,228.28 470.89,230.11C474.21,231.93 477.25,233.08 477.67,232.67C478.08,232.26 476.04,227.14 473.13,221.29C470.22,215.44 466.68,209.13 465.25,207.26C463.83,205.40 460.96,203.00 458.87,201.93C456.40,200.67 453.07,200.01 449.29,200.02C445.15,200.03 442.36,200.68 439.50,202.29C437.30,203.53 434.63,206.17 433.56,208.15C431.81,211.40 431.74,212.27 432.88,217.38C433.74,221.20 435.17,224.10 437.32,226.38C439.87,229.07 442.78,230.46 452.00,233.36C458.32,235.35 464.18,237.43 465.00,237.98C465.82,238.52 467.53,238.98 468.79,238.98zM531.40,239.00C532.18,239.00 535.61,237.42 539.04,235.48C542.46,233.54 546.91,230.65 548.93,229.05C550.95,227.46 553.93,223.75 555.55,220.82C558.12,216.18 558.49,214.48 558.50,207.50C558.50,202.92 557.91,198.10 557.11,196.21C556.35,194.40 554.88,192.47 553.85,191.92C552.46,191.18 550.77,191.45 547.33,192.97C544.78,194.10 542.53,194.86 542.33,194.66C542.13,194.46 542.84,192.33 543.92,189.93C545.33,186.77 545.58,185.20 544.82,184.28C544.20,183.54 541.56,183.00 538.56,183.00C535.70,183.00 531.28,183.71 528.73,184.58C526.19,185.44 522.09,187.93 519.61,190.11C517.14,192.29 513.90,196.55 512.42,199.57C509.93,204.67 509.77,205.75 510.25,214.28C510.54,219.35 511.10,224.29 511.50,225.25C511.89,226.21 512.95,227.00 513.86,227.00C514.76,227.00 516.76,225.42 518.29,223.50C519.83,221.57 521.40,220.00 521.79,220.00C522.18,220.00 522.34,222.52 522.15,225.60C521.96,228.68 522.21,231.61 522.70,232.10C523.24,232.64 525.01,231.96 527.05,230.43C528.95,229.01 531.78,227.17 533.34,226.35C534.91,225.53 536.38,225.04 536.61,225.28C536.84,225.51 535.45,228.33 533.52,231.54C531.58,234.75 530.00,237.75 530.00,238.19C530.00,238.64 530.63,239.00 531.40,239.00zM487.03,229.00C487.54,229.00 488.91,227.14 490.07,224.86C491.31,222.42 492.01,219.54 491.77,217.86C491.54,216.29 491.61,215.00 491.94,215.00C492.27,215.00 494.03,217.50 495.86,220.56C498.08,224.27 499.73,226.01 500.84,225.80C502.04,225.57 502.74,223.83 503.38,219.49C503.86,216.20 505.05,209.68 506.02,205.00C507.73,196.79 507.72,196.38 505.93,192.87C504.92,190.88 502.00,187.41 499.46,185.18C496.19,182.29 493.28,180.76 489.48,179.91C485.23,178.96 483.48,178.97 481.05,179.98C479.37,180.68 476.59,182.85 474.87,184.80C473.15,186.76 471.13,189.84 470.37,191.65C469.62,193.45 469.00,196.89 469.00,199.27C469.00,201.89 469.98,205.56 471.48,208.55C472.85,211.27 476.70,216.99 480.03,221.25C483.37,225.51 486.52,229.00 487.03,229.00zM347.50,190.56C353.88,190.30 359.55,189.27 367.00,187.04C372.77,185.30 379.92,182.45 382.88,180.69C385.84,178.94 390.31,175.14 392.82,172.25C397.38,167.00 397.38,167.00 403.94,166.99C407.55,166.99 413.37,166.52 416.88,165.95C420.39,165.38 424.58,164.23 426.19,163.40C427.80,162.57 430.93,160.26 433.13,158.26C435.34,156.27 438.02,152.91 439.10,150.81C440.33,148.38 441.40,143.27 442.01,136.84C442.87,127.83 443.54,125.51 447.99,115.93C450.75,110.00 453.00,103.80 453.00,102.15C453.00,99.88 452.00,98.30 448.88,95.63C446.62,93.69 442.71,91.41 440.21,90.55C437.70,89.70 434.85,89.00 433.88,89.00C432.91,89.00 431.91,88.66 431.66,88.25C431.41,87.84 431.82,84.35 432.57,80.50C433.31,76.65 433.94,70.01 433.96,65.75C433.99,59.40 433.65,57.65 432.07,56.07C431.01,55.01 428.04,53.83 425.48,53.44C422.91,53.06 417.82,53.00 414.16,53.31C410.50,53.62 406.50,54.18 405.27,54.55C403.44,55.10 402.85,54.71 402.01,52.36C401.45,50.79 400.25,48.15 399.35,46.50C398.45,44.85 396.60,42.30 395.24,40.82C393.88,39.35 390.47,37.16 387.67,35.95C383.76,34.27 381.38,33.89 377.40,34.30C374.55,34.59 370.71,35.61 368.86,36.56C367.01,37.51 362.78,41.10 359.45,44.54C353.39,50.79 353.39,50.79 348.28,48.36C344.93,46.76 341.33,45.91 337.83,45.88C334.90,45.85 331.37,46.27 329.98,46.80C328.60,47.34 325.55,49.85 323.22,52.38C320.89,54.91 318.22,58.57 317.29,60.52C316.10,63.01 315.14,63.88 314.05,63.45C313.20,63.11 309.33,62.59 305.45,62.29C300.51,61.91 296.74,62.22 292.86,63.35C289.33,64.38 285.63,66.46 282.63,69.10C280.05,71.37 277.27,74.51 276.47,76.06C275.66,77.62 275.00,81.09 275.00,83.77C275.00,86.45 275.72,91.08 276.60,94.07C277.47,97.06 279.74,102.46 281.63,106.08C283.52,109.70 286.31,114.14 287.82,115.96C290.58,119.26 290.58,119.26 294.89,117.06C297.26,115.85 301.97,114.41 305.35,113.87C308.73,113.33 311.91,112.48 312.41,111.98C312.95,111.45 312.85,110.53 312.16,109.70C311.53,108.93 309.21,107.50 307.01,106.50C304.80,105.51 303.00,104.34 303.00,103.90C303.00,103.46 305.81,102.96 309.25,102.80C314.49,102.55 315.48,102.22 315.36,100.75C315.25,99.40 316.00,99.00 318.61,99.00C320.66,99.00 322.00,98.51 321.99,97.75C321.98,97.06 320.86,94.54 319.49,92.15C318.12,89.75 317.00,87.39 317.00,86.90C317.00,86.40 317.56,86.00 318.25,86.01C318.94,86.02 321.86,87.12 324.75,88.46C330.00,90.91 330.00,90.91 330.00,88.61C330.00,87.35 329.34,84.13 328.54,81.46C327.73,78.78 327.27,76.40 327.51,76.15C327.75,75.91 328.87,76.79 329.99,78.11C331.12,79.42 333.46,82.41 335.19,84.75C336.92,87.09 338.73,89.00 339.20,89.00C339.67,89.00 340.35,88.21 340.70,87.25C341.05,86.29 342.16,84.43 343.17,83.12C344.18,81.80 345.00,79.44 345.00,77.87C345.00,76.29 345.34,75.02 345.75,75.04C346.16,75.06 347.41,76.52 348.52,78.29C350.06,80.73 351.25,81.50 353.52,81.50C355.90,81.50 356.80,80.85 358.00,78.27C358.82,76.50 359.81,75.03 360.18,75.02C360.56,75.01 361.83,76.35 363.00,78.00C364.17,79.65 365.74,81.00 366.47,81.00C367.21,81.00 369.16,78.64 370.80,75.75C372.45,72.86 375.42,68.95 377.40,67.05C379.38,65.16 381.00,64.04 381.00,64.56C381.00,65.08 380.53,67.09 379.96,69.01C379.39,70.93 378.91,74.86 378.89,77.74C378.87,80.62 379.14,83.88 379.50,84.99C379.85,86.09 380.64,87.00 381.26,87.00C381.88,87.00 384.79,84.47 387.74,81.38C390.69,78.29 393.27,75.94 393.49,76.16C393.71,76.38 393.48,78.34 392.97,80.53C392.46,82.71 392.04,86.19 392.02,88.25C392.01,90.31 392.34,92.00 392.75,92.00C393.17,92.00 395.72,90.43 398.43,88.50C401.14,86.58 403.95,85.00 404.68,85.00C405.40,85.00 406.00,85.73 406.00,86.63C406.00,87.98 406.85,88.17 411.00,87.77C413.75,87.51 416.00,87.63 416.00,88.04C416.00,88.44 415.21,89.66 414.25,90.74C413.29,91.81 409.57,94.96 406.00,97.72C402.43,100.48 396.60,104.62 393.05,106.90C389.50,109.19 382.97,112.17 378.55,113.52C374.12,114.87 364.20,116.91 356.50,118.06C347.57,119.39 333.96,120.41 318.92,120.88C296.64,121.58 295.14,121.75 291.57,123.96C289.49,125.24 286.31,128.60 284.51,131.41C282.71,134.23 280.46,138.77 279.51,141.52C278.56,144.26 277.56,149.23 277.27,152.57C276.76,158.63 276.76,158.63 281.09,162.35C283.47,164.39 287.92,167.26 290.96,168.73C295.83,171.07 297.81,171.41 307.36,171.54C318.22,171.68 318.22,171.68 322.36,178.50C324.64,182.26 327.68,186.20 329.12,187.27C330.57,188.33 333.27,189.59 335.12,190.06C336.98,190.53 342.55,190.76 347.50,190.56zM349.24,172.92C342.78,172.88 336.15,172.37 334.50,171.79C332.85,171.22 330.42,169.79 329.11,168.62C327.79,167.46 324.04,162.92 320.77,158.55C317.50,154.17 313.77,148.51 312.48,145.96C311.19,143.41 308.48,139.17 306.47,136.53C303.62,132.80 303.11,131.55 304.16,130.88C304.89,130.41 309.44,130.02 314.25,130.02C319.06,130.01 323.00,130.39 323.00,130.86C323.00,131.34 324.42,134.82 326.15,138.61C327.88,142.40 329.48,144.97 329.71,144.32C329.93,143.67 329.42,140.78 328.56,137.89C327.70,135.00 327.00,132.02 327.00,131.26C327.00,130.25 328.22,129.97 331.62,130.20C336.23,130.50 336.23,130.50 339.49,139.52C341.28,144.49 344.38,151.79 346.38,155.75C348.37,159.71 351.13,163.69 352.51,164.60C354.52,165.92 355.30,166.00 356.51,165.00C357.58,164.10 358.01,161.63 358.05,156.13C358.10,148.50 358.10,148.50 362.06,156.25C365.05,162.10 366.53,164.00 368.07,164.00C369.19,164.00 373.28,163.48 377.14,162.84C382.72,161.92 384.49,161.19 385.74,159.28C387.14,157.14 387.17,155.13 386.06,141.00C385.37,132.26 385.07,124.69 385.39,124.17C385.71,123.66 389.40,121.61 393.59,119.62C397.78,117.63 401.61,116.00 402.10,116.00C402.60,116.00 403.01,122.19 403.01,129.75C403.02,137.31 403.30,144.53 403.64,145.79C403.98,147.05 404.76,147.91 405.37,147.71C405.98,147.51 407.32,145.90 408.35,144.14C409.38,142.38 411.29,137.76 412.61,133.88C413.92,130.00 415.95,121.73 417.12,115.51C418.30,109.30 419.62,103.61 420.07,102.88C420.52,102.15 421.16,101.82 421.48,102.15C421.80,102.47 422.47,106.28 422.96,110.62C423.45,114.95 423.59,123.18 423.26,128.90C422.76,137.90 422.91,139.46 424.36,140.52C425.31,141.21 425.77,142.43 425.44,143.31C425.11,144.17 422.48,146.49 419.61,148.47C416.73,150.45 409.80,153.85 404.20,156.02C398.59,158.19 390.97,161.50 387.26,163.36C383.54,165.23 376.11,168.16 370.74,169.88C361.99,172.68 359.75,172.99 349.24,172.92zM330.87,110.00C331.82,110.00 333.14,109.46 333.80,108.80C334.46,108.14 335.00,106.16 335.00,104.41C335.00,102.42 334.40,100.99 333.42,100.61C332.55,100.27 331.01,100.00 329.99,100.00C328.97,100.00 327.44,100.71 326.57,101.57C325.71,102.44 325.00,103.50 325.00,103.94C325.00,104.37 325.93,105.92 327.07,107.37C328.21,108.81 329.92,110.00 330.87,110.00zM366.17,108.00C366.62,108.00 367.68,107.21 368.50,106.25C369.32,105.29 370.89,103.50 371.98,102.27C373.06,101.05 374.60,100.29 375.38,100.59C376.16,100.89 377.04,102.05 377.34,103.17C377.63,104.30 378.45,105.00 379.18,104.75C379.91,104.49 380.41,103.06 380.30,101.55C380.19,100.05 378.96,97.33 377.58,95.51C376.19,93.69 372.70,91.04 369.83,89.60C366.96,88.17 363.01,87.00 361.05,87.01C359.10,87.01 355.85,87.47 353.83,88.03C351.81,88.59 348.82,90.58 347.18,92.45C345.54,94.32 343.88,97.25 343.51,98.97C343.03,101.13 343.33,102.86 344.49,104.63C345.41,106.03 346.44,106.89 346.78,106.55C347.13,106.21 347.43,104.74 347.45,103.30C347.48,101.86 348.07,100.48 348.76,100.25C349.49,100.01 350.68,101.39 351.56,103.48C352.40,105.49 353.63,106.96 354.29,106.74C354.96,106.52 355.64,105.20 355.80,103.80C355.97,102.39 357.19,100.23 358.50,99.00C359.88,97.71 361.56,97.00 362.45,97.34C363.52,97.75 364.00,99.28 364.00,102.30C364.00,104.70 364.30,106.97 364.67,107.33C365.03,107.70 365.71,108.00 366.17,108.00z" />

</svg>