<?xml version="1.0" encoding="UTF-8" standalone="no"?>
<svg 
  version="1.1" 
  xmlns="http://www.w3.org/2000/svg" 
  xmlns:xlink="http://www.w3.org/1999/xlink" 
  xmlns:svg="http://www.w3.org/2000/svg"
  xmlns:rdf="http://www.w3.org/1999/02/22-rdf-syntax-ns#"
  xmlns:cc="http://creativecommons.org/ns#"
  xmlns:dc="http://purl.org/dc/elements/1.1/"
  viewBox="0 0 768 768"
  width="768"
  height="768"
>
<style>svg {background-color: white; }</style>"
<metadata id="metadata1">
Created by https://svgstud.io and licensed under CC-BY-SA 4.0 license. Please attribute https://svgstud.io
</metadata>
<metadata id="prompt">
more flowers with more space between, elegant
</metadata>
<metadata id="version">
7
</metadata>
<metadata id="metadata2">
<rdf:RDF>
<cc:Work
    rdf:about="">
    <cc:license
    rdf:resource="http://creativecommons.org/licenses/by-sa/4.0/" />
    <dc:creator>
        <cc:Agent>
            <dc:title>https://svgstud.io</dc:title>
        </cc:Agent>
    </dc:creator>
</cc:Work>
<cc:License
    rdf:about="http://creativecommons.org/licenses/by-sa/4.0/">
    <cc:permits
    rdf:resource="http://creativecommons.org/ns#Reproduction" />
    <cc:permits
    rdf:resource="http://creativecommons.org/ns#Distribution" />
    <cc:requires
    rdf:resource="http://creativecommons.org/ns#Notice" />
    <cc:requires
    rdf:resource="http://creativecommons.org/ns#Attribution" />
    <cc:permits
    rdf:resource="http://creativecommons.org/ns#DerivativeWorks" />
    <cc:requires
    rdf:resource="http://creativecommons.org/ns#ShareAlike" />
</cc:License>
</rdf:RDF>
</metadata>
<metadata id="uid">
fa7560b7e7f81787f847b8d8f2697b6c25b0ade05cb115fce080ae9b073e7f53
</metadata>
<path stroke="none" fill="black" fill-rule="evenodd" d="M422.06,726.00C417.69,726.00 413.84,725.55 413.49,724.99C413.15,724.43 410.64,713.52 407.92,700.74C405.20,687.96 402.05,673.23 400.93,668.00C399.80,662.77 396.87,649.05 394.41,637.50C391.95,625.95 388.82,611.10 387.46,604.50C386.09,597.90 382.67,582.15 379.85,569.50C377.03,556.85 373.73,544.25 372.51,541.50C371.30,538.75 366.81,530.20 362.55,522.50C358.28,514.80 351.14,502.88 346.68,496.00C342.22,489.12 336.11,480.12 333.11,476.00C330.10,471.88 327.01,468.02 326.22,467.44C325.34,466.78 322.88,466.66 319.65,467.12C316.82,467.52 311.80,467.88 308.50,467.91C305.20,467.94 299.35,467.30 295.50,466.49C291.65,465.68 285.57,463.61 282.00,461.90C276.66,459.34 272.92,456.16 261.00,444.05C253.03,435.94 244.76,428.03 242.64,426.45C238.82,423.62 238.80,423.58 240.84,421.93C241.97,421.01 247.31,418.79 252.70,416.99C261.20,414.15 264.23,413.66 275.55,413.25C285.51,412.89 290.08,413.16 294.88,414.39C298.33,415.28 301.72,416.00 302.39,416.00C303.28,416.00 303.51,414.36 303.21,410.19C302.94,406.43 303.43,402.11 304.60,397.94C305.65,394.21 306.45,387.92 306.50,383.00C306.55,378.32 306.93,373.10 307.34,371.38C308.10,368.27 308.10,368.27 300.80,367.80C296.61,367.53 291.56,366.46 288.95,365.31C286.45,364.20 282.75,361.84 280.74,360.08C278.73,358.31 275.87,354.40 274.40,351.39C271.98,346.43 271.77,345.16 272.26,338.02C272.78,330.49 272.67,329.94 269.92,326.21C268.34,324.06 266.41,319.64 265.62,316.40C264.84,313.15 261.94,302.40 259.18,292.50C256.42,282.60 253.66,273.21 253.06,271.63C252.09,269.11 251.59,268.83 248.92,269.37C247.25,269.70 241.78,270.47 236.77,271.08C231.76,271.69 225.15,271.90 222.08,271.54C219.01,271.18 214.09,270.21 211.14,269.39C207.44,268.35 204.32,266.51 201.03,263.43C198.41,260.98 195.21,256.99 193.93,254.57C191.59,250.17 191.59,250.17 193.55,246.53C194.62,244.52 197.44,240.42 199.80,237.40C202.17,234.38 205.54,231.03 207.30,229.96C209.06,228.89 211.50,228.01 212.71,228.00C213.93,228.00 215.40,227.13 215.96,226.07C216.53,225.00 217.00,221.66 217.00,218.63C217.00,215.61 217.43,212.00 217.96,210.62C218.49,209.22 221.94,206.05 225.71,203.51C229.44,200.99 234.69,197.37 237.36,195.46C240.03,193.56 243.31,192.00 244.65,192.00C245.99,192.00 248.80,192.88 250.91,193.95C253.01,195.03 256.17,197.11 257.93,198.59C260.87,201.07 261.75,201.26 269.13,201.09C273.54,200.98 278.64,201.39 280.47,201.99C282.73,202.74 284.23,204.11 285.15,206.29C286.06,208.46 286.50,213.90 286.50,223.00C286.50,235.73 286.35,236.79 283.80,241.61C282.32,244.42 278.79,249.25 275.97,252.34C273.14,255.44 268.62,259.40 265.91,261.15C263.21,262.90 260.95,264.82 260.89,265.42C260.84,266.01 260.86,267.85 260.96,269.50C261.05,271.15 262.72,279.70 264.67,288.50C266.62,297.30 268.45,304.88 268.73,305.35C269.01,305.81 271.32,304.18 273.87,301.72C276.42,299.26 280.64,296.03 283.25,294.53C285.86,293.03 288.00,291.20 288.00,290.46C288.00,289.72 287.54,288.84 286.99,288.49C286.43,288.15 285.12,286.20 284.08,284.16C283.04,282.12 281.65,277.70 280.99,274.35C279.97,269.18 280.04,267.39 281.40,262.69C282.29,259.63 284.20,255.73 285.64,254.02C287.08,252.30 290.44,249.80 293.11,248.45C295.77,247.10 300.26,245.66 303.07,245.25C307.88,244.54 308.27,244.27 309.51,240.66C310.24,238.54 311.86,235.71 313.13,234.36C314.39,233.02 318.27,230.51 321.74,228.80C326.50,226.47 329.87,225.58 335.36,225.23C340.33,224.91 344.41,225.27 348.14,226.35C351.16,227.23 355.50,229.31 357.79,230.97C360.09,232.63 363.15,235.79 364.61,237.99C366.07,240.20 367.80,242.00 368.46,242.00C369.11,242.00 370.65,240.93 371.88,239.63C373.11,238.32 375.77,236.56 377.80,235.71C379.84,234.86 382.29,233.92 383.25,233.62C384.21,233.31 385.00,232.20 385.00,231.14C385.00,230.08 384.10,224.87 383.01,219.55C381.92,214.23 380.29,207.32 379.39,204.19C378.49,201.06 377.36,198.00 376.88,197.40C376.40,196.79 371.81,196.00 366.69,195.64C361.57,195.28 349.53,194.10 339.94,193.02C330.35,191.93 319.35,190.30 315.50,189.39C311.65,188.48 305.18,186.23 301.13,184.38C295.57,181.84 292.13,179.35 287.13,174.22C282.90,169.89 278.96,164.50 276.25,159.34C273.91,154.90 272.00,150.11 272.00,148.71C272.00,147.30 273.15,144.79 274.55,143.13C275.95,141.46 279.83,138.04 283.18,135.53C286.52,133.01 289.95,130.57 290.80,130.09C292.07,129.38 292.30,127.28 292.11,118.30C291.96,111.18 292.32,106.40 293.13,104.61C293.82,103.09 295.56,101.25 296.99,100.51C298.42,99.77 302.27,98.49 305.54,97.67C308.82,96.86 314.09,95.89 317.25,95.52C323.01,94.86 323.01,94.86 326.33,87.68C328.78,82.40 331.24,79.04 335.62,75.00C338.89,71.97 344.82,67.28 348.79,64.57C356.01,59.64 356.01,59.64 361.35,61.32C364.28,62.24 371.14,65.19 376.59,67.87C382.04,70.54 388.92,74.56 391.88,76.79C394.84,79.03 398.45,82.66 399.91,84.86C402.56,88.87 402.56,88.87 407.36,85.89C409.99,84.25 414.60,82.41 417.60,81.81C421.60,81.01 426.06,81.02 434.28,81.86C440.45,82.50 446.85,83.38 448.50,83.82C450.27,84.30 452.03,85.73 452.80,87.31C453.52,88.78 454.75,93.02 455.53,96.74C456.32,100.46 456.97,108.23 456.98,114.02C457.00,121.56 456.43,126.61 454.97,131.86C453.86,135.88 451.77,141.50 450.34,144.34C448.90,147.18 446.35,151.53 444.66,154.00C442.98,156.47 439.35,160.88 436.61,163.79C433.87,166.70 428.48,171.43 424.62,174.29C420.77,177.16 411.74,182.43 404.56,186.00C391.50,192.50 391.50,192.50 391.14,196.50C390.95,198.70 391.35,207.03 392.05,215.00C392.74,222.97 393.64,230.42 394.05,231.53C394.56,232.95 396.41,233.97 400.14,234.90C404.45,235.97 406.48,237.26 410.55,241.49C413.89,244.97 416.76,247.00 419.05,247.50C420.95,247.91 423.65,248.83 425.06,249.55C426.47,250.27 429.11,252.35 430.93,254.18C432.75,256.01 435.08,259.30 436.10,261.50C437.26,263.99 437.96,267.80 437.98,271.61C438.00,276.44 437.37,278.95 435.01,283.61C433.37,286.85 432.02,289.59 432.01,289.70C432.01,289.82 433.69,290.19 435.75,290.54C437.81,290.89 440.93,291.60 442.67,292.14C444.42,292.67 447.70,294.45 449.97,296.09C452.24,297.74 455.42,301.18 457.05,303.74C459.34,307.35 460.00,309.55 460.00,313.57C460.00,316.42 459.33,320.63 458.52,322.94C457.51,325.80 457.24,328.97 457.65,332.97C457.99,336.18 457.97,339.99 457.61,341.43C457.25,342.87 455.27,345.91 453.22,348.18C451.18,350.45 447.25,353.36 444.50,354.65C441.75,355.93 438.11,356.98 436.42,356.99C434.72,357.00 433.08,357.25 432.77,357.56C432.46,357.87 432.83,360.46 433.59,363.31C434.35,366.16 434.98,370.25 434.99,372.38C434.99,374.52 434.45,378.09 433.79,380.32C433.12,382.54 430.98,386.01 429.04,388.02C426.83,390.30 422.59,392.88 417.74,394.87C413.48,396.63 407.97,398.44 405.49,398.90C403.01,399.37 398.87,399.35 396.25,398.87C393.64,398.39 389.54,396.62 387.15,394.95C384.76,393.27 382.45,392.04 382.02,392.20C381.59,392.37 378.26,395.30 374.62,398.72C368.72,404.25 368.00,405.35 368.00,408.72C367.99,410.80 371.38,440.18 375.53,474.00C379.67,507.82 383.72,539.38 384.51,544.13C385.31,548.88 386.47,554.05 387.11,555.63C388.25,558.50 388.25,558.50 388.99,555.95C389.39,554.55 390.04,547.80 390.42,540.95C390.81,534.10 392.00,522.65 393.08,515.50C394.15,508.35 396.16,497.77 397.53,492.00C398.91,486.23 401.22,477.90 402.65,473.50C404.09,469.10 407.30,460.60 409.79,454.60C412.29,448.61 420.84,430.61 428.79,414.60C436.74,398.60 447.07,377.40 451.74,367.50C456.40,357.60 462.67,343.43 465.66,336.00C468.65,328.57 473.58,315.99 476.62,308.03C479.66,300.07 482.40,291.41 482.71,288.80C483.10,285.50 482.85,283.52 481.89,282.36C481.12,281.44 476.77,277.57 472.21,273.76C467.65,269.95 459.64,261.58 454.40,255.17C448.55,247.99 443.21,240.16 440.53,234.82C438.13,230.04 435.63,223.52 434.96,220.32C434.19,216.60 433.95,209.99 434.29,202.00C434.59,195.12 435.36,187.75 436.00,185.62C437.16,181.74 437.16,181.74 442.83,182.41C445.95,182.78 452.31,184.39 456.96,185.99C463.15,188.12 465.76,188.62 466.71,187.83C467.42,187.24 468.00,185.98 468.00,185.04C468.00,184.09 469.38,180.56 471.07,177.18C472.76,173.80 475.47,170.09 477.10,168.93C478.73,167.77 483.70,165.70 488.14,164.34C492.58,162.97 500.43,159.61 505.58,156.85C511.39,153.75 515.64,152.07 516.78,152.43C517.79,152.75 521.08,156.05 524.11,159.76C527.13,163.46 530.61,167.95 531.84,169.71C533.43,171.99 535.17,173.11 537.79,173.57C539.83,173.93 542.48,174.84 543.67,175.58C544.86,176.33 546.72,179.32 547.80,182.22C549.76,187.50 549.76,187.50 557.63,190.09C561.96,191.51 566.96,193.43 568.75,194.36C571.21,195.64 572.00,196.71 571.99,198.78C571.98,200.27 571.31,203.71 570.49,206.41C569.67,209.11 569.00,211.92 569.00,212.66C569.00,213.40 571.23,215.24 573.95,216.75C576.67,218.26 579.37,220.53 579.95,221.80C580.53,223.06 581.00,224.92 581.00,225.93C581.00,226.94 579.23,231.31 577.06,235.63C574.89,239.96 570.87,246.00 568.14,249.07C565.19,252.37 560.65,255.97 556.99,257.92C553.59,259.73 551.19,261.56 551.66,261.98C552.12,262.41 556.16,263.95 560.63,265.42C565.10,266.88 571.40,269.67 574.63,271.61C577.86,273.55 581.74,276.31 583.25,277.75C584.76,279.20 586.00,280.92 586.00,281.60C586.00,282.27 584.02,285.25 581.60,288.22C579.18,291.19 574.79,295.27 571.85,297.30C568.91,299.32 563.92,301.89 560.76,302.99C557.61,304.10 551.63,305.51 547.48,306.13C541.90,306.96 537.65,306.96 531.17,306.13C526.35,305.51 519.60,304.06 516.18,302.90C512.75,301.75 506.57,298.59 502.44,295.90C498.32,293.20 494.35,291.00 493.64,291.00C492.92,291.00 490.61,295.38 488.50,300.75C486.39,306.11 480.07,321.30 474.46,334.50C468.85,347.70 458.97,369.98 452.51,384.00C446.05,398.02 438.17,414.68 435.00,421.00C431.83,427.32 426.32,439.25 422.75,447.50C419.18,455.75 414.43,468.12 412.20,475.00C409.97,481.88 407.02,492.45 405.65,498.50C404.27,504.55 402.42,514.18 401.53,519.90C400.39,527.21 400.22,530.62 400.97,531.37C401.71,532.11 403.96,530.50 408.51,525.99C414.85,519.71 415.00,519.44 415.00,514.33C415.00,511.45 415.50,506.71 416.11,503.80C416.72,500.88 418.81,495.45 420.75,491.73C422.90,487.59 426.35,483.06 429.60,480.08C432.53,477.40 436.98,474.22 439.48,473.01C441.99,471.80 445.94,470.57 448.27,470.27C452.50,469.74 452.50,469.74 445.89,474.79C442.26,477.57 437.93,481.57 436.28,483.67C434.62,485.78 432.36,489.30 431.26,491.50C430.15,493.70 428.93,496.96 428.54,498.75C428.16,500.54 428.09,502.00 428.39,502.00C428.69,502.00 430.48,499.59 432.37,496.64C434.26,493.69 438.43,489.12 441.65,486.49C444.87,483.86 450.98,480.02 455.23,477.96C460.55,475.38 465.57,473.82 471.37,472.96C477.87,472.00 481.80,471.97 488.65,472.85C493.53,473.47 500.00,474.63 503.01,475.42C506.03,476.21 512.38,478.26 517.13,479.98C521.87,481.69 526.53,483.67 527.48,484.36C528.99,485.47 528.10,486.30 519.85,491.50C512.69,496.00 506.86,501.03 495.00,512.94C482.43,525.56 478.13,529.22 472.27,532.29C467.93,534.57 461.93,536.70 457.27,537.61C452.28,538.59 447.35,538.90 443.50,538.49C440.20,538.14 434.82,536.95 431.54,535.84C428.26,534.74 424.32,532.94 422.79,531.85C421.26,530.76 420.00,529.00 420.00,527.95C420.00,526.68 421.28,525.47 423.75,524.41C426.25,523.33 430.17,522.82 435.50,522.88C439.90,522.93 445.86,523.25 448.75,523.60C452.38,524.04 454.00,523.88 454.00,523.09C454.00,522.46 450.51,520.33 446.25,518.35C438.61,514.81 438.54,514.75 441.50,513.86C443.35,513.31 448.66,513.39 455.33,514.07C461.28,514.68 466.43,514.91 466.76,514.57C467.09,514.24 466.93,513.53 466.39,512.99C465.85,512.45 461.64,510.19 457.04,507.96C449.83,504.47 448.28,504.06 445.77,504.93C444.17,505.49 438.73,509.05 433.68,512.84C428.63,516.63 423.64,520.69 422.60,521.86C421.52,523.06 419.49,524.00 417.94,524.00C416.02,524.00 413.90,525.32 410.85,528.42C408.46,530.85 404.93,535.44 403.00,538.63C399.50,544.41 399.50,544.41 399.19,563.35C398.96,577.23 399.31,585.12 400.51,592.90C401.41,598.73 406.19,621.27 411.13,643.00C416.07,664.73 422.34,691.37 425.06,702.21C427.77,713.06 430.00,722.84 430.00,723.96C430.00,725.84 429.38,726.00 422.06,726.00zM299.96,619.00C299.46,619.00 295.88,616.27 291.99,612.93C288.11,609.58 282.52,603.62 279.58,599.68C276.63,595.73 272.84,590.02 271.15,586.99C269.46,583.96 267.38,579.49 266.52,577.06C265.66,574.63 264.49,569.62 263.92,565.92C263.17,561.08 263.20,557.42 264.02,552.85C264.65,549.36 266.76,543.46 268.71,539.74C270.94,535.50 274.45,530.95 278.11,527.56C281.32,524.58 286.85,520.72 290.38,518.98C293.92,517.24 297.59,515.97 298.54,516.16C299.79,516.41 298.57,517.83 294.17,521.29C290.82,523.92 286.52,527.97 284.64,530.29C282.75,532.60 279.81,537.26 278.10,540.62C276.40,543.99 274.72,548.15 274.38,549.87C274.03,551.59 274.12,553.00 274.57,553.00C275.02,553.00 276.54,551.91 277.95,550.57C279.35,549.23 283.17,546.53 286.44,544.57C289.71,542.61 292.97,541.00 293.69,541.00C294.41,541.00 295.00,541.67 295.00,542.49C295.00,543.31 291.84,547.25 287.97,551.24C284.10,555.23 280.01,560.42 278.87,562.77C277.73,565.11 276.56,568.83 276.27,571.02C275.95,573.39 276.15,575.00 276.75,575.00C277.31,575.00 279.01,573.31 280.54,571.25C282.06,569.19 284.68,566.04 286.35,564.25C288.02,562.46 289.75,561.00 290.20,561.00C290.64,561.00 291.00,562.07 291.00,563.37C291.00,564.68 290.11,567.75 289.03,570.20C287.94,572.65 286.76,577.15 286.41,580.19C286.00,583.67 286.15,585.97 286.80,586.38C287.43,586.77 288.50,584.81 289.45,581.51C290.33,578.48 291.23,576.00 291.45,576.00C291.66,576.00 293.27,580.30 295.02,585.55C296.93,591.28 298.66,594.94 299.35,594.70C300.16,594.42 300.43,590.37 300.25,581.15C300.06,570.91 300.29,568.00 301.30,568.00C302.02,568.00 303.13,568.53 303.78,569.18C304.43,569.83 305.26,570.07 305.63,569.70C305.99,569.34 305.10,566.39 303.64,563.14C302.19,559.89 300.71,555.16 300.36,552.62C299.95,549.65 300.10,548.00 300.78,548.00C301.36,548.00 304.20,550.02 307.10,552.49C309.99,554.96 312.55,556.79 312.78,556.56C313.01,556.32 312.71,554.64 312.10,552.82C311.50,550.99 308.98,547.03 306.50,544.01C303.17,539.94 302.00,537.65 302.00,535.20C302.00,533.37 303.17,529.40 304.61,526.37C306.27,522.85 308.64,519.82 311.16,518.00C313.34,516.42 316.48,514.83 318.15,514.47C319.82,514.10 323.17,514.10 325.59,514.46C328.02,514.83 330.00,515.53 330.00,516.02C330.00,516.52 327.81,517.57 325.13,518.37C322.45,519.17 318.87,520.53 317.18,521.41C315.48,522.28 313.67,523.77 313.14,524.71C312.39,526.05 313.13,527.46 316.54,531.26C318.93,533.92 321.82,538.57 322.95,541.59C324.15,544.80 325.00,549.47 325.00,552.86C325.00,556.04 324.28,561.07 323.39,564.05C322.51,567.03 317.58,577.71 312.44,587.79C306.38,599.69 302.88,607.76 302.47,610.81C302.12,613.39 301.61,616.29 301.35,617.25C301.08,618.21 300.46,619.00 299.96,619.00zM370.66,517.67C370.93,517.40 370.45,510.95 369.59,503.34C368.73,495.73 366.68,477.57 365.04,463.00C363.40,448.43 361.39,430.02 360.58,422.10C359.77,414.18 358.74,407.34 358.29,406.89C357.84,406.44 354.89,405.77 351.74,405.40C346.38,404.77 346.00,404.86 346.00,406.80C346.00,407.94 346.70,412.16 347.56,416.18C348.42,420.21 349.15,426.99 349.19,431.25C349.23,436.99 348.65,440.62 346.93,445.25C345.17,450.00 343.22,452.85 338.81,457.14C335.61,460.24 333.00,463.17 333.01,463.64C333.01,464.11 335.53,467.65 338.60,471.50C341.68,475.35 347.67,483.45 351.91,489.50C356.16,495.55 361.35,503.43 363.45,507.00C365.56,510.57 367.93,514.55 368.72,515.84C369.51,517.12 370.38,517.95 370.66,517.67zM438.91,504.00C439.41,504.00 444.71,501.79 450.69,499.10C456.67,496.40 464.70,493.26 468.53,492.12C472.36,490.98 479.77,489.39 485.00,488.58C490.23,487.77 497.99,486.79 502.25,486.41C506.51,486.03 510.00,485.37 510.00,484.94C510.00,484.51 506.74,483.41 502.75,482.49C498.76,481.57 491.23,480.58 486.00,480.29C480.76,479.99 473.14,480.27 469.00,480.91C464.88,481.55 458.69,483.38 455.26,484.98C451.82,486.58 447.46,489.08 445.56,490.53C443.66,491.97 441.18,495.07 440.05,497.40C438.92,499.73 438.00,502.16 438.00,502.82C438.00,503.47 438.41,504.00 438.91,504.00zM461.34,503.23C467.48,503.09 473.96,502.73 475.75,502.44C477.57,502.14 479.00,501.31 479.00,500.55C479.00,499.80 476.89,498.47 474.32,497.59C471.75,496.72 467.56,496.00 465.02,496.00C461.63,496.00 459.17,496.78 455.82,498.90C453.30,500.50 451.00,502.19 450.71,502.65C450.42,503.12 455.21,503.38 461.34,503.23zM335.17,453.40C335.62,453.11 336.00,451.90 336.00,450.69C335.99,449.49 335.09,447.01 333.98,445.19C332.87,443.38 329.93,439.91 327.45,437.50C324.96,435.09 320.13,431.28 316.72,429.03C313.30,426.79 307.59,424.05 304.04,422.94C300.49,421.84 293.07,420.47 287.55,419.91C282.04,419.34 275.27,419.16 272.51,419.51C269.76,419.85 265.14,420.79 262.25,421.59C259.36,422.40 257.00,423.44 257.00,423.90C257.00,424.36 259.61,425.04 262.80,425.40C266.00,425.76 273.67,427.38 279.85,429.01C286.04,430.63 291.81,432.35 292.68,432.84C293.89,433.52 293.35,433.90 290.38,434.44C288.25,434.84 284.59,436.00 282.25,437.02C279.91,438.05 278.00,439.36 278.00,439.94C278.00,440.52 279.24,441.04 280.75,441.09C282.26,441.14 285.52,441.14 288.00,441.08C290.48,441.02 294.64,440.71 297.25,440.39C299.86,440.07 302.00,439.42 302.00,438.94C302.00,438.46 300.76,437.36 299.25,436.50C296.50,434.93 296.50,434.93 300.00,435.53C301.93,435.86 308.00,438.28 313.50,440.92C319.00,443.56 325.94,447.56 328.92,449.82C331.89,452.07 334.71,453.68 335.17,453.40zM303.00,451.40C307.68,451.14 313.19,450.68 315.25,450.38C317.52,450.04 319.00,449.28 319.00,448.43C319.00,447.67 317.22,446.13 315.04,445.02C312.86,443.91 309.33,443.00 307.20,443.00C304.87,443.00 300.86,444.23 297.16,446.08C293.77,447.77 291.00,449.54 291.00,450.00C291.00,450.47 291.79,451.08 292.75,451.36C293.71,451.64 298.32,451.66 303.00,451.40zM331.73,430.61C332.00,430.33 330.99,426.60 329.49,422.30C327.99,418.01 326.53,411.47 326.25,407.77C325.73,401.04 325.73,401.04 319.33,397.52C315.81,395.58 312.72,394.00 312.47,394.00C312.21,394.00 312.00,394.95 312.00,396.11C312.00,397.26 312.69,400.98 313.54,404.36C314.39,407.74 316.03,412.90 317.19,415.84C318.80,419.90 320.74,422.37 325.27,426.14C328.55,428.87 331.45,430.88 331.73,430.61zM480.59,428.88C475.59,428.82 470.60,428.57 469.50,428.32C468.40,428.07 465.42,427.21 462.87,426.39C460.32,425.58 457.50,424.11 456.60,423.11C455.09,421.44 455.11,421.12 457.00,418.73C458.11,417.31 461.31,415.39 464.10,414.47C468.86,412.89 469.81,412.89 479.51,414.48C485.20,415.41 490.67,415.99 491.68,415.77C492.90,415.50 490.94,414.07 485.78,411.47C480.81,408.98 478.49,407.31 479.28,406.81C479.95,406.38 487.25,406.02 495.50,406.00C503.75,405.99 511.53,405.70 512.79,405.36C514.05,405.02 514.91,404.24 514.71,403.63C514.50,403.01 510.55,401.31 505.92,399.83C501.29,398.36 495.86,397.12 493.85,397.08C491.16,397.02 485.83,399.22 473.43,405.52C464.20,410.21 456.05,414.55 455.30,415.16C454.56,415.78 453.77,416.10 453.55,415.88C453.32,415.66 453.78,412.11 454.56,407.99C455.33,403.87 457.62,397.16 459.63,393.07C462.17,387.92 465.32,383.64 469.93,379.07C473.59,375.46 479.15,370.99 482.28,369.13C485.41,367.28 491.92,364.40 496.74,362.72C504.39,360.06 507.23,359.61 519.16,359.21C526.67,358.96 541.12,359.08 551.27,359.48C561.41,359.88 570.33,360.59 571.09,361.05C572.12,361.69 570.34,364.08 563.91,370.70C559.20,375.54 552.74,383.10 549.53,387.50C546.33,391.90 541.66,397.93 539.15,400.90C536.64,403.88 531.31,408.91 527.30,412.10C523.29,415.28 516.75,419.48 512.76,421.44C508.77,423.40 501.94,425.90 497.59,427.00C492.26,428.35 486.72,428.96 480.59,428.88zM336.18,411.00C336.62,409.07 336.74,406.49 336.47,405.27C336.17,403.93 334.95,402.77 333.44,402.40C332.05,402.05 330.71,401.96 330.47,402.20C330.23,402.44 330.46,404.12 330.98,405.94C331.50,407.76 332.71,410.43 333.67,411.87C335.40,414.50 335.40,414.50 336.18,411.00zM285.86,404.99C285.11,404.98 283.39,404.41 282.04,403.72C280.63,403.01 275.70,396.43 270.54,388.38C265.57,380.62 259.74,371.92 257.59,369.03C255.44,366.15 251.46,362.04 248.75,359.90C246.04,357.75 243.21,356.00 242.46,356.00C241.59,356.00 240.66,358.22 239.90,362.12C239.20,365.68 237.40,370.17 235.60,372.87C233.44,376.09 230.85,378.34 227.07,380.25C222.47,382.58 220.40,383.00 213.50,383.00C208.78,383.00 203.45,382.35 200.82,381.46C198.33,380.61 193.64,377.68 190.40,374.96C187.15,372.23 182.14,368.09 179.25,365.75C176.37,363.41 174.01,360.98 174.00,360.34C174.00,359.70 176.32,357.75 179.15,356.00C181.98,354.26 187.72,349.59 191.90,345.63C196.08,341.67 201.07,337.47 203.00,336.30C204.93,335.13 209.13,333.42 212.35,332.49C216.35,331.33 219.66,331.02 222.85,331.48C225.41,331.86 229.30,332.97 231.50,333.95C233.70,334.94 236.84,337.17 238.48,338.92C241.46,342.09 241.46,342.09 236.48,339.82C232.56,338.02 229.69,337.53 222.99,337.52C215.36,337.50 213.77,337.84 207.80,340.78C204.12,342.59 198.96,346.06 196.31,348.49C192.48,352.02 191.91,352.93 193.50,352.96C194.60,352.98 198.94,352.34 203.16,351.53C207.37,350.73 213.89,349.35 217.66,348.48C221.42,347.60 226.14,346.41 228.14,345.82C230.79,345.04 233.12,345.07 236.67,345.92C239.70,346.65 244.08,348.98 248.17,352.04C251.80,354.77 257.33,359.75 260.45,363.12C263.56,366.48 268.37,372.45 271.13,376.37C273.89,380.29 278.33,387.10 280.99,391.51C283.66,395.91 286.15,400.75 286.53,402.26C287.03,404.24 286.84,405.00 285.86,404.99zM356.55,395.88C359.08,395.96 362.52,395.05 365.69,393.47C368.87,391.88 371.84,389.39 373.64,386.80C376.36,382.85 376.50,382.15 376.42,372.08C376.35,363.45 375.85,360.00 373.66,353.37C372.19,348.89 370.33,344.69 369.53,344.03C368.35,343.05 367.64,343.29 365.79,345.29C364.53,346.65 361.77,350.63 359.65,354.13C357.48,357.72 356.03,359.41 356.33,358.00C356.63,356.62 357.37,352.64 358.00,349.15C358.62,345.65 358.91,342.58 358.65,342.32C358.39,342.05 357.29,342.31 356.22,342.88C355.15,343.46 351.94,346.48 349.09,349.59C346.25,352.70 343.74,355.07 343.52,354.85C343.30,354.63 344.72,350.92 346.67,346.61C349.54,340.29 349.97,338.59 348.87,337.90C348.11,337.43 346.60,337.32 345.50,337.66C344.40,338.00 340.06,340.48 335.84,343.17C331.63,345.87 326.37,350.04 324.16,352.45C321.94,354.85 319.01,359.02 317.64,361.72C316.28,364.41 314.87,368.20 314.50,370.15C314.14,372.09 314.34,375.53 314.94,377.80C315.55,380.06 317.19,383.27 318.59,384.92C320.23,386.87 322.96,388.46 326.31,389.42C329.17,390.24 336.23,392.00 342.00,393.34C347.77,394.68 354.32,395.82 356.55,395.88zM506.50,394.64C512.00,394.33 518.54,393.38 521.03,392.52C524.41,391.36 528.58,388.05 537.45,379.48C549.34,368.01 549.34,368.01 538.42,367.82C532.41,367.72 522.70,367.67 516.84,367.72C510.30,367.77 504.05,368.42 500.70,369.40C497.68,370.28 493.89,372.23 492.27,373.75C490.65,375.26 488.42,378.98 487.30,382.00C486.19,385.02 484.98,388.74 484.62,390.25C484.26,391.76 484.35,393.00 484.82,393.00C485.29,393.00 489.47,390.72 494.09,387.94C498.72,385.15 505.88,381.27 510.00,379.30C514.12,377.34 519.30,375.12 521.50,374.38C525.19,373.12 525.34,373.14 523.50,374.60C522.40,375.47 517.23,379.28 512.00,383.06C506.77,386.85 501.15,391.13 499.50,392.57C496.50,395.20 496.50,395.20 506.50,394.64zM401.73,389.99C403.50,390.00 407.92,388.88 411.55,387.52C415.17,386.15 419.46,384.09 421.08,382.94C422.70,381.79 424.70,379.55 425.52,377.97C426.33,376.39 427.00,373.39 426.99,371.30C426.98,369.21 425.92,365.22 424.62,362.44C423.32,359.65 419.99,355.15 417.22,352.44C414.44,349.72 408.34,345.10 403.65,342.17C398.97,339.24 394.20,336.60 393.07,336.31C391.62,335.93 391.00,336.24 391.00,337.35C391.00,338.23 392.32,342.56 393.93,346.97C395.54,351.39 396.55,355.00 396.18,354.99C395.81,354.99 392.19,352.04 388.15,348.44C384.10,344.85 380.28,342.08 379.65,342.30C378.92,342.56 378.55,345.08 378.64,349.14C378.72,352.68 379.94,359.94 381.36,365.27C382.78,370.61 384.81,376.67 385.88,378.74C386.94,380.81 388.86,383.48 390.15,384.68C391.44,385.88 393.85,387.57 395.50,388.43C397.15,389.29 399.95,389.99 401.73,389.99zM221.89,370.00C222.39,370.00 225.76,366.51 229.38,362.25C233.01,357.99 235.98,353.94 235.99,353.25C236.00,352.48 234.61,352.00 232.37,352.00C230.37,352.00 227.02,352.51 224.92,353.14C222.83,353.77 219.55,355.57 217.63,357.15C215.71,358.73 213.62,361.62 212.97,363.58C212.33,365.53 212.05,367.38 212.36,367.69C212.66,368.00 214.32,367.07 216.03,365.62C217.75,364.18 219.57,363.00 220.08,363.00C220.58,363.00 221.00,364.57 221.00,366.50C221.00,368.43 221.40,370.00 221.89,370.00zM201.94,366.00C202.46,366.00 205.61,363.48 208.94,360.40C212.27,357.31 214.75,354.41 214.46,353.94C214.17,353.47 213.16,353.36 212.22,353.69C211.27,354.02 209.04,355.38 207.25,356.70C205.46,358.02 203.32,360.41 202.50,362.00C201.67,363.60 201.00,365.15 201.00,365.45C201.00,365.75 201.42,366.00 201.94,366.00zM302.17,357.66C305.95,357.36 309.78,356.16 313.67,354.08C316.88,352.36 323.55,347.67 328.50,343.66C333.45,339.64 337.64,335.65 337.80,334.80C338.06,333.46 337.41,333.37 333.30,334.13C330.66,334.63 327.60,335.26 326.50,335.54C324.82,335.97 324.90,335.77 326.95,334.28C328.29,333.30 330.32,331.72 331.45,330.77C333.22,329.28 333.29,328.90 332.00,328.04C331.18,327.48 329.24,327.02 327.69,327.02C326.15,327.01 325.12,326.62 325.41,326.15C325.70,325.68 328.09,324.50 330.72,323.52C333.35,322.54 335.95,321.33 336.49,320.83C337.14,320.23 337.01,319.62 336.12,319.07C335.37,318.61 330.66,317.71 325.66,317.06C320.66,316.42 316.44,315.78 316.30,315.63C316.15,315.48 319.28,314.63 323.26,313.73C327.24,312.84 331.99,311.82 333.80,311.46C335.62,311.11 336.94,310.31 336.73,309.70C336.53,309.08 334.21,307.50 331.59,306.19C328.96,304.88 323.59,302.66 319.66,301.25C314.93,299.57 309.61,298.54 304.00,298.24C299.22,297.98 293.66,298.28 291.29,298.92C288.98,299.54 285.21,301.50 282.91,303.28C280.62,305.05 277.83,308.09 276.72,310.03C275.20,312.68 274.87,314.47 275.37,317.18C275.75,319.16 277.42,322.51 279.10,324.62C281.37,327.49 281.99,329.10 281.54,330.98C281.21,332.37 280.67,335.39 280.35,337.69C280.02,340.00 280.03,343.00 280.38,344.36C280.72,345.73 282.22,348.29 283.71,350.07C285.20,351.84 288.69,354.37 291.46,355.70C295.51,357.63 297.61,358.02 302.17,357.66zM434.77,347.55C437.72,347.32 441.52,346.23 443.41,345.05C445.27,343.91 447.52,341.42 448.42,339.52C449.38,337.51 449.80,335.05 449.44,333.61C449.10,332.26 447.96,330.37 446.91,329.42C445.86,328.47 445.00,327.13 445.00,326.45C445.00,325.76 446.35,322.64 448.00,319.50C449.65,316.36 451.00,312.92 451.00,311.85C451.00,310.78 450.32,308.59 449.49,306.99C448.67,305.39 445.90,302.85 443.34,301.35C439.58,299.15 437.12,298.54 430.50,298.20C424.66,297.89 420.64,298.25 416.44,299.47C413.21,300.41 408.97,302.00 407.03,302.99C405.09,303.98 402.26,305.94 400.75,307.35C399.24,308.75 398.00,310.38 398.00,310.95C398.00,311.56 400.35,312.00 403.56,312.00C406.62,312.00 408.88,312.39 408.58,312.87C408.28,313.35 406.59,314.03 404.82,314.39C403.05,314.74 400.54,315.73 399.24,316.58C397.34,317.82 397.10,318.42 398.05,319.56C398.70,320.34 400.98,321.46 403.12,322.03C405.25,322.61 407.00,323.51 407.00,324.04C407.00,324.57 404.07,325.00 400.50,325.00C396.93,325.00 394.00,325.42 394.00,325.94C394.00,326.46 396.25,328.78 399.01,331.10C401.78,333.44 403.90,336.03 403.76,336.91C403.58,337.98 405.64,339.58 410.00,341.76C413.57,343.56 419.43,345.69 423.00,346.49C426.57,347.30 431.87,347.77 434.77,347.55zM363.36,325.00C364.60,325.00 367.16,323.86 369.04,322.47C372.48,319.93 372.48,319.93 374.32,322.47C375.34,323.86 376.94,325.00 377.88,325.00C378.83,325.00 380.14,324.46 380.80,323.80C381.46,323.14 382.00,321.94 382.00,321.13C382.00,320.32 381.26,318.84 380.36,317.85C379.03,316.37 378.98,315.96 380.11,315.58C380.88,315.33 382.35,314.98 383.39,314.81C384.43,314.64 385.74,313.78 386.29,312.90C386.84,312.03 387.00,310.14 386.64,308.72C386.29,307.30 385.06,305.84 383.91,305.47C382.32,304.97 381.03,305.67 378.52,308.40C376.71,310.38 374.30,312.00 373.16,312.00C372.02,312.00 369.95,312.52 368.55,313.16C367.15,313.80 366.00,314.68 366.00,315.13C366.00,315.57 364.62,317.51 362.92,319.44C361.23,321.36 360.13,323.40 360.48,323.97C360.83,324.54 362.13,325.00 363.36,325.00zM357.75,323.25C358.44,322.99 359.00,322.41 359.00,321.94C359.00,321.48 357.99,320.03 356.75,318.71C355.51,317.40 353.26,315.52 351.75,314.55C349.00,312.77 349.00,312.77 349.00,315.71C349.00,317.49 349.89,319.46 351.25,320.70C352.49,321.82 354.18,322.96 355.00,323.23C355.82,323.49 357.06,323.50 357.75,323.25zM365.52,313.35C366.18,313.10 367.25,311.12 367.90,308.95C368.55,306.78 369.42,305.00 369.84,305.00C370.26,305.00 371.08,305.48 371.68,306.08C372.45,306.85 373.93,306.80 376.88,305.92C379.57,305.11 381.00,304.10 381.00,303.02C381.00,302.10 379.99,300.43 378.75,299.30C377.51,298.17 375.52,296.74 374.32,296.12C373.11,295.51 369.83,295.00 367.02,295.00C364.20,295.00 360.46,295.73 358.70,296.62C356.94,297.51 354.44,299.19 353.15,300.37C351.87,301.54 350.18,303.72 349.40,305.20C348.63,306.69 348.00,308.82 348.00,309.95C348.00,311.08 348.42,312.00 348.94,312.00C349.46,312.00 350.13,311.60 350.43,311.11C350.73,310.63 352.57,309.93 354.52,309.56C357.38,309.03 358.65,309.37 361.19,311.35C362.92,312.71 364.87,313.60 365.52,313.35zM390.92,303.99C391.24,303.99 396.67,302.16 402.99,299.93C409.30,297.70 415.92,294.98 417.69,293.88C419.46,292.79 422.72,289.18 424.94,285.85C427.16,282.53 429.46,278.02 430.05,275.82C430.64,273.63 430.83,270.41 430.47,268.67C430.11,266.92 428.65,263.79 427.23,261.69C425.81,259.60 423.36,256.97 421.78,255.84C419.72,254.38 417.86,253.92 415.20,254.24C413.17,254.48 410.76,255.01 409.85,255.41C408.52,256.00 408.07,255.36 407.52,252.10C407.14,249.88 405.93,246.91 404.83,245.51C403.73,244.11 401.54,242.29 399.96,241.48C398.28,240.61 394.37,240.00 390.51,240.00C385.90,240.00 382.75,240.60 380.02,241.99C377.87,243.09 375.02,245.45 373.68,247.24C372.33,249.03 370.46,252.03 369.51,253.91C368.22,256.46 367.92,258.74 368.34,262.91C368.65,265.98 369.94,272.32 371.22,277.00C372.78,282.68 374.03,285.50 375.00,285.50C375.79,285.50 377.14,283.62 377.99,281.32C378.84,279.02 379.86,276.80 380.27,276.40C380.67,276.00 381.00,277.09 381.00,278.83C381.00,280.58 381.38,282.00 381.85,282.00C382.31,282.00 385.68,278.77 389.33,274.82C392.98,270.86 396.24,267.90 396.57,268.24C396.91,268.57 395.57,272.43 393.59,276.80C391.62,281.17 390.00,285.26 390.00,285.88C390.00,286.49 390.24,287.00 390.54,287.00C390.84,287.00 392.86,286.09 395.04,284.98C397.22,283.87 399.00,283.31 399.00,283.73C399.00,284.15 396.75,287.88 394.00,292.00C391.25,296.12 389.00,300.21 389.00,301.08C389.00,301.95 389.30,302.97 389.67,303.33C390.03,303.70 390.60,304.00 390.92,303.99zM336.25,298.88C337.76,298.95 339.00,298.71 339.00,298.35C339.00,297.99 337.38,294.80 335.41,291.27C333.43,287.74 332.06,284.60 332.36,284.31C332.66,284.01 335.87,285.39 339.49,287.38C343.11,289.37 346.28,291.00 346.53,291.00C346.79,291.00 347.00,290.09 347.00,288.97C347.00,287.85 345.82,284.59 344.37,281.72C342.92,278.85 339.78,273.46 337.39,269.75C335.00,266.04 333.30,263.00 333.63,263.00C333.95,263.00 336.07,264.46 338.34,266.25C340.61,268.04 343.82,271.03 345.48,272.91C347.14,274.78 349.78,278.04 351.34,280.16C352.90,282.27 354.58,284.00 355.09,284.00C355.59,284.00 356.02,282.31 356.05,280.25C356.09,276.50 356.09,276.50 358.57,281.25C359.93,283.86 361.66,286.00 362.41,286.00C363.17,286.00 364.06,285.30 364.39,284.44C364.72,283.58 365.03,277.62 365.09,271.19C365.19,260.90 364.89,258.68 362.63,252.70C361.21,248.96 358.60,243.88 356.83,241.41C355.05,238.94 352.00,235.92 350.05,234.71C347.11,232.88 345.03,232.50 338.00,232.50C330.88,232.50 328.69,232.92 324.50,235.04C321.08,236.78 318.95,238.69 317.76,241.09C316.44,243.77 316.24,245.36 316.94,247.80C317.86,251.00 317.86,251.00 310.18,251.02C303.73,251.04 301.71,251.48 297.53,253.77C294.80,255.27 291.54,258.03 290.28,259.90C288.68,262.29 288.00,264.75 288.00,268.20C288.00,270.89 288.71,274.48 289.58,276.16C290.46,277.85 293.02,281.24 295.29,283.70C297.56,286.16 301.01,288.96 302.96,289.94C304.90,290.91 311.68,293.09 318.00,294.79C324.32,296.49 330.40,298.08 331.50,298.32C332.60,298.57 334.74,298.82 336.25,298.88zM541.00,295.65C550.52,295.40 554.86,294.83 559.22,293.25C562.36,292.11 567.62,289.29 570.90,286.99C574.18,284.69 577.07,282.25 577.34,281.56C577.60,280.88 577.50,279.81 577.12,279.19C576.74,278.57 573.06,276.52 568.96,274.62C564.86,272.73 558.80,270.49 555.50,269.66C552.20,268.83 547.02,267.85 543.98,267.48C540.92,267.12 535.60,267.35 532.04,267.99C528.50,268.63 523.98,269.99 521.99,271.01C520.00,272.02 517.77,273.57 517.05,274.44C515.85,275.88 516.57,275.97 524.61,275.39C533.50,274.74 533.50,274.74 529.25,278.45C526.91,280.49 525.00,282.53 525.00,282.98C525.00,283.43 528.07,284.11 531.83,284.48C535.58,284.86 539.23,285.52 539.93,285.96C540.84,286.52 540.89,286.95 540.10,287.44C539.49,287.81 533.35,288.39 526.46,288.72C519.57,289.04 513.69,289.69 513.40,290.16C513.12,290.62 514.14,291.49 515.69,292.08C517.24,292.67 520.75,293.79 523.50,294.57C526.96,295.55 532.35,295.88 541.00,295.65zM217.40,262.97C220.16,263.00 220.22,262.90 218.65,261.17C217.74,260.17 217.00,259.04 217.00,258.67C217.00,258.30 221.31,258.00 226.58,258.00C233.56,258.00 236.06,257.68 235.77,256.81C235.55,256.15 231.58,254.02 226.94,252.06C218.50,248.50 218.50,248.50 227.50,248.00C236.50,247.50 236.50,247.50 232.42,243.00C228.34,238.50 228.34,238.50 228.78,231.21C229.08,226.38 229.61,224.04 230.37,224.28C230.99,224.49 233.44,227.21 235.82,230.33C238.20,233.45 240.56,236.00 241.07,236.00C241.58,236.00 242.01,234.31 242.03,232.25C242.06,228.50 242.06,228.50 244.78,231.56C246.28,233.25 248.99,236.79 250.82,239.44C253.24,242.96 254.44,243.96 255.24,243.16C256.05,242.35 256.03,238.48 255.18,228.86C254.53,221.60 254.18,215.49 254.39,215.27C254.61,215.06 255.76,216.25 256.94,217.92C258.13,219.59 260.21,224.11 261.55,227.96C262.90,231.81 264.01,235.98 264.02,237.23C264.02,238.48 264.38,240.06 264.81,240.73C265.33,241.55 266.52,240.09 268.29,236.48C269.77,233.47 271.41,231.00 271.93,231.00C272.46,231.00 273.02,232.91 273.19,235.25C273.50,239.50 273.50,239.50 275.33,236.80C276.34,235.32 277.86,231.49 278.70,228.30C279.55,225.11 280.28,219.41 280.33,215.64C280.40,209.99 280.08,208.53 278.52,207.39C277.47,206.62 274.27,206.00 271.37,206.00C268.49,206.00 264.99,206.44 263.59,206.97C261.38,207.81 260.44,207.41 256.45,203.95C253.92,201.76 250.51,199.28 248.87,198.43C247.24,197.59 245.06,197.16 244.03,197.49C243.00,197.82 238.68,200.77 234.44,204.04C230.20,207.32 226.36,210.00 225.89,210.00C225.43,210.00 224.30,211.14 223.39,212.52C222.17,214.40 221.75,217.24 221.80,223.52C221.86,232.00 221.86,232.00 218.00,232.00C215.87,232.00 213.05,232.41 211.72,232.92C210.40,233.42 206.54,237.30 203.16,241.54C199.77,245.79 197.00,249.84 197.00,250.54C197.00,251.25 198.72,253.20 200.82,254.86C202.93,256.53 206.87,259.03 209.57,260.42C212.28,261.81 215.81,262.96 217.40,262.97zM518.73,261.52C520.78,261.14 525.87,259.74 530.05,258.42C534.24,257.10 540.32,254.30 543.58,252.19C546.84,250.08 553.33,244.28 558.00,239.31C562.67,234.33 567.53,228.42 568.79,226.17C571.08,222.08 571.08,222.08 567.18,220.09C563.61,218.27 563.21,217.65 562.60,213.05C561.93,208.00 561.93,208.00 556.72,207.89C553.85,207.84 550.34,207.86 548.92,207.95C546.42,208.11 546.33,207.92 546.31,202.31C546.30,199.11 545.54,193.59 544.61,190.04C543.69,186.49 542.21,182.78 541.31,181.79C540.14,180.49 538.21,180.00 534.31,180.00C530.01,180.00 528.52,179.55 526.87,177.75C525.73,176.51 522.70,171.90 520.13,167.50C516.26,160.89 515.06,159.54 513.17,159.75C511.92,159.88 507.89,161.81 504.22,164.02C500.55,166.24 494.41,168.98 490.59,170.12C486.76,171.26 482.57,172.89 481.26,173.75C479.95,174.61 478.05,176.95 477.02,178.96C475.99,180.97 474.41,185.50 473.50,189.01C472.54,192.71 471.82,199.43 471.80,204.95C471.78,211.23 472.46,217.41 473.81,223.01C474.93,227.69 476.81,234.10 478.00,237.26C479.18,240.42 480.54,243.00 481.03,243.00C481.51,243.00 482.19,241.31 482.54,239.25C482.88,237.19 484.29,231.45 485.67,226.50C487.06,221.55 490.60,212.43 493.55,206.23C497.55,197.79 500.34,193.44 504.60,188.98C507.74,185.69 510.73,183.00 511.25,183.00C511.77,183.00 511.04,184.96 509.64,187.36C508.23,189.76 505.94,195.12 504.54,199.27C503.15,203.43 501.37,209.90 500.59,213.66C499.81,217.42 498.86,223.99 498.47,228.25C498.03,233.04 498.13,236.00 498.73,236.00C499.26,236.00 500.55,235.05 501.60,233.89C502.64,232.73 505.17,230.45 507.21,228.84C510.92,225.89 510.92,225.89 506.53,235.20C504.12,240.31 501.82,245.85 501.43,247.50C500.84,249.99 502.84,248.34 513.11,237.85C519.92,230.90 526.62,224.66 528.00,223.98C530.07,222.97 530.28,222.98 529.25,224.08C528.56,224.80 528.00,226.03 528.00,226.80C528.00,227.85 529.22,228.11 533.00,227.85C535.75,227.66 537.98,227.72 537.95,228.00C537.92,228.28 535.68,230.30 532.97,232.50C530.26,234.70 527.09,237.77 525.93,239.33C524.77,240.88 524.05,242.38 524.32,242.65C524.60,242.93 527.65,242.01 531.11,240.61C534.57,239.21 537.58,238.25 537.80,238.47C538.02,238.69 536.77,240.65 535.02,242.82C533.27,245.00 528.05,250.03 523.42,254.01C518.79,257.99 515.00,261.46 515.00,261.73C515.00,262.00 516.68,261.91 518.73,261.52zM464.71,238.99C464.90,238.15 464.14,234.82 463.03,231.58C461.91,228.34 461.01,223.62 461.02,221.09C461.03,218.57 461.70,213.35 462.52,209.50C463.33,205.65 464.00,201.01 464.00,199.20C464.00,196.16 463.56,195.70 458.57,193.49C455.58,192.17 450.84,190.33 448.03,189.41C445.22,188.50 442.64,188.03 442.29,188.37C441.95,188.72 441.30,191.59 440.85,194.75C440.38,198.11 440.47,203.83 441.07,208.50C441.76,213.85 443.22,218.90 445.50,223.75C447.37,227.74 449.14,231.00 449.43,231.00C449.71,231.00 449.69,229.68 449.36,228.07C448.84,225.43 449.56,225.91 456.57,232.82C461.82,237.99 464.47,240.01 464.71,238.99zM313.25,179.97C313.66,179.99 314.00,179.76 314.00,179.47C314.00,179.19 311.21,175.95 307.80,172.29C304.33,168.55 302.13,165.46 302.80,165.23C303.46,165.01 308.84,167.30 314.75,170.32C320.66,173.33 326.85,176.51 328.50,177.39C330.15,178.27 332.29,178.99 333.26,178.99C334.81,179.00 334.69,178.47 332.37,174.75C330.91,172.41 327.53,167.69 324.84,164.25C322.16,160.81 320.15,158.00 320.38,158.00C320.61,158.00 325.80,160.01 331.91,162.46C338.02,164.92 345.26,167.59 348.01,168.41C350.75,169.23 353.00,169.49 353.00,169.00C353.00,168.51 346.48,160.65 338.52,151.54C330.55,142.42 323.35,133.65 322.52,132.03C321.68,130.42 321.00,128.35 321.00,127.44C321.00,126.26 321.50,125.99 322.75,126.51C323.71,126.90 325.36,127.47 326.41,127.77C328.02,128.23 328.21,127.94 327.65,125.91C327.28,124.58 326.29,119.45 325.44,114.50C324.59,109.55 323.64,104.65 323.34,103.62C322.85,101.97 322.09,101.81 317.14,102.34C314.04,102.67 309.12,103.65 306.20,104.52C302.61,105.60 300.58,106.83 299.87,108.38C299.18,109.90 299.14,114.09 299.76,121.07C300.26,126.81 300.51,131.98 300.30,132.56C300.10,133.14 297.59,134.77 294.72,136.19C291.85,137.61 287.36,140.66 284.75,142.97C281.83,145.55 280.00,148.01 280.00,149.33C280.01,150.53 280.96,153.07 282.13,155.00C283.30,156.93 286.42,161.24 289.08,164.58C291.73,167.92 295.75,171.94 298.00,173.50C300.26,175.06 304.44,177.15 307.30,178.14C310.16,179.13 312.84,179.95 313.25,179.97zM395.98,162.52C396.44,162.23 397.55,159.86 398.45,157.25C399.35,154.64 400.54,147.38 401.10,141.12C401.79,133.35 401.77,124.39 401.05,112.81C400.34,101.45 399.49,94.91 398.47,92.94C397.64,91.33 394.78,88.32 392.13,86.25C389.48,84.19 380.83,79.16 372.90,75.08C361.83,69.37 357.92,67.80 356.00,68.31C354.62,68.67 348.87,73.30 343.21,78.60C337.55,83.91 331.99,90.07 330.85,92.30C329.36,95.21 328.91,97.55 329.26,100.58C329.52,102.91 330.62,106.10 331.69,107.66C332.77,109.22 334.25,112.08 334.98,114.00C335.71,115.92 337.20,119.00 338.29,120.84C339.77,123.33 340.49,123.84 341.12,122.84C341.59,122.10 341.98,119.81 341.98,117.75C341.99,115.69 342.41,114.00 342.90,114.00C343.40,114.00 344.72,117.04 345.83,120.75C346.94,124.46 348.62,130.20 349.55,133.50C350.48,136.80 352.50,142.28 354.03,145.69C355.56,149.09 358.23,153.93 359.96,156.44C361.68,158.95 363.47,161.00 363.92,161.00C364.38,161.00 366.65,157.06 368.97,152.25C371.29,147.44 373.97,140.42 374.94,136.65C376.70,129.80 376.70,129.80 379.60,136.46C382.08,142.17 382.59,142.79 383.15,140.81C383.51,139.54 383.86,134.00 383.93,128.50C384.02,121.43 384.35,118.99 385.04,120.18C385.58,121.11 387.56,127.86 389.43,135.18C391.31,142.51 393.17,151.43 393.55,155.00C393.94,158.57 394.46,161.84 394.70,162.27C394.94,162.69 395.51,162.80 395.98,162.52zM413.54,155.00C413.83,155.00 418.20,150.68 423.25,145.40C428.30,140.12 432.57,136.21 432.74,136.71C432.90,137.21 431.68,140.92 430.02,144.95C428.36,148.98 427.00,152.89 427.00,153.64C427.00,154.39 427.44,155.00 427.98,155.00C428.52,155.00 431.36,152.56 434.30,149.57C437.24,146.58 441.04,141.52 442.74,138.32C444.43,135.12 446.63,129.80 447.61,126.50C448.94,122.03 449.36,117.39 449.27,108.29C449.19,100.43 448.67,95.09 447.82,93.30C446.81,91.21 445.51,90.36 442.49,89.83C440.30,89.45 433.74,89.02 427.91,88.88C418.95,88.67 416.82,88.92 414.02,90.56C412.20,91.63 409.79,93.73 408.67,95.24C406.69,97.89 406.68,98.15 408.28,103.24C409.20,106.13 410.38,111.59 410.91,115.36C411.44,119.13 412.18,122.50 412.56,122.86C412.93,123.21 413.65,122.83 414.15,122.00C414.65,121.17 416.51,118.06 418.28,115.08C420.05,112.10 421.95,109.75 422.50,109.87C423.08,109.99 423.38,112.87 423.21,116.75C423.00,121.52 421.50,127.70 417.96,138.31C415.23,146.50 413.00,153.60 413.00,154.10C413.00,154.59 413.24,155.00 413.54,155.00z" />

</svg>