<?xml version="1.0" encoding="UTF-8" standalone="no"?>
<svg 
  version="1.1" 
  xmlns="http://www.w3.org/2000/svg" 
  xmlns:xlink="http://www.w3.org/1999/xlink" 
  xmlns:svg="http://www.w3.org/2000/svg"
  xmlns:rdf="http://www.w3.org/1999/02/22-rdf-syntax-ns#"
  xmlns:cc="http://creativecommons.org/ns#"
  xmlns:dc="http://purl.org/dc/elements/1.1/"
  viewBox="0 0 768 768"
  width="768"
  height="768"
>
<style>svg {background-color: white; }</style>"
<metadata id="metadata1">
Created by https://svgstud.io and licensed under CC-BY-SA 4.0 license. Please attribute https://svgstud.io
</metadata>
<metadata id="prompt">
simple floral art
</metadata>
<metadata id="version">
7
</metadata>
<metadata id="metadata2">
<rdf:RDF>
<cc:Work
    rdf:about="">
    <cc:license
    rdf:resource="http://creativecommons.org/licenses/by-sa/4.0/" />
    <dc:creator>
        <cc:Agent>
            <dc:title>https://svgstud.io</dc:title>
        </cc:Agent>
    </dc:creator>
</cc:Work>
<cc:License
    rdf:about="http://creativecommons.org/licenses/by-sa/4.0/">
    <cc:permits
    rdf:resource="http://creativecommons.org/ns#Reproduction" />
    <cc:permits
    rdf:resource="http://creativecommons.org/ns#Distribution" />
    <cc:requires
    rdf:resource="http://creativecommons.org/ns#Notice" />
    <cc:requires
    rdf:resource="http://creativecommons.org/ns#Attribution" />
    <cc:permits
    rdf:resource="http://creativecommons.org/ns#DerivativeWorks" />
    <cc:requires
    rdf:resource="http://creativecommons.org/ns#ShareAlike" />
</cc:License>
</rdf:RDF>
</metadata>
<metadata id="uid">
89bff9f52117f02b7898127b58bb2ef24a7aaec84ea36283d05a914857f1118b
</metadata>
<path stroke="none" fill="black" fill-rule="evenodd" d="M418.18,750.91C415.06,750.86 411.04,750.40 409.25,749.88C406.00,748.94 406.00,748.94 405.99,730.72C405.98,720.70 405.53,705.98 404.98,698.00C404.43,690.02 403.29,676.98 402.45,669.00C401.61,661.02 398.91,644.44 396.46,632.16C394.01,619.87 390.68,604.57 389.07,598.16C387.46,591.74 383.81,579.30 380.97,570.50C378.13,561.70 371.96,545.27 367.26,534.00C362.56,522.73 357.22,510.22 355.39,506.21C353.57,502.19 351.13,497.58 349.97,495.96C347.94,493.10 347.58,493.00 339.87,493.00C335.48,493.00 329.77,492.49 327.19,491.88C324.61,491.26 318.45,488.86 313.50,486.55C308.55,484.24 300.85,480.05 296.39,477.25C291.92,474.45 284.05,470.04 278.89,467.46C273.72,464.88 269.29,462.57 269.03,462.33C268.77,462.09 269.22,461.47 270.03,460.96C270.84,460.45 273.35,460.02 275.62,460.02C277.88,460.01 283.52,460.66 288.13,461.46C292.75,462.27 300.56,464.10 305.49,465.53C310.42,466.95 318.02,469.69 322.36,471.60C326.71,473.51 330.76,474.91 331.36,474.71C331.96,474.51 330.15,472.06 327.35,469.25C324.54,466.45 319.61,462.82 316.38,461.20C313.14,459.57 307.88,457.42 304.67,456.41C300.26,455.03 299.28,454.41 300.67,453.86C301.68,453.47 304.77,453.11 307.54,453.07C310.31,453.03 315.16,453.67 318.32,454.50C321.48,455.32 325.96,456.96 328.28,458.14C330.60,459.33 334.97,462.84 338.00,465.95C341.02,469.06 345.07,474.41 347.00,477.85C348.93,481.28 353.03,487.66 356.12,492.02C360.24,497.83 363.14,503.64 366.96,513.73C369.82,521.30 372.64,527.95 373.21,528.50C373.93,529.19 374.05,527.34 373.59,522.50C373.22,518.65 371.79,508.30 370.39,499.50C369.00,490.70 366.56,475.40 364.98,465.50C363.40,455.60 361.44,442.32 360.63,436.00C359.81,429.68 358.86,421.80 358.51,418.50C358.17,415.20 357.65,411.71 357.37,410.75C356.96,409.33 355.70,409.00 350.68,408.98C346.72,408.96 342.95,408.25 340.18,407.00C337.80,405.92 334.71,404.13 333.30,403.02C331.88,401.91 330.34,401.00 329.86,401.00C329.38,401.00 327.03,404.04 324.64,407.75C322.26,411.46 318.10,416.63 315.40,419.23C312.71,421.83 307.35,426.24 303.50,429.02C299.65,431.79 293.74,435.38 290.36,436.98C286.98,438.59 279.67,441.48 274.12,443.41C268.57,445.34 262.26,447.94 260.08,449.19C257.91,450.44 255.82,451.15 255.44,450.77C255.06,450.39 254.82,446.12 254.91,441.29C255.01,436.45 255.53,429.37 256.07,425.55C256.61,421.72 257.75,415.87 258.61,412.55C259.47,409.22 261.64,403.35 263.43,399.50C265.22,395.65 268.57,390.13 270.87,387.24C273.18,384.35 277.60,380.30 280.70,378.24C286.34,374.50 286.34,374.50 296.69,374.75C307.01,375.01 307.05,375.00 308.03,372.42C308.57,371.00 308.76,369.42 308.45,368.92C308.14,368.41 305.29,368.00 302.12,368.00C298.95,368.00 294.12,367.34 291.39,366.52C288.65,365.71 284.50,363.41 282.17,361.42C279.84,359.42 277.05,356.05 275.97,353.93C274.54,351.14 274.03,348.22 274.10,343.29C274.15,339.56 274.52,335.38 274.92,334.00C275.39,332.37 274.94,329.82 273.63,326.63C271.82,322.22 271.75,321.11 272.82,314.83C273.48,311.02 274.85,306.23 275.88,304.20C276.90,302.16 278.03,299.57 278.38,298.43C278.98,296.48 278.64,296.36 272.76,296.38C267.61,296.41 265.37,295.83 260.12,293.13C256.62,291.32 251.65,287.74 249.09,285.17C246.53,282.60 242.69,277.62 240.55,274.10C238.42,270.59 233.34,259.79 229.25,250.10C225.17,240.42 221.32,231.28 220.71,229.79C220.09,228.30 219.87,226.80 220.21,226.45C220.56,226.11 229.54,226.59 240.17,227.53C251.62,228.53 263.27,230.17 268.74,231.55C273.82,232.83 281.24,235.58 285.24,237.66C289.98,240.13 295.27,244.15 300.48,249.22C304.88,253.50 308.73,257.00 309.04,257.00C309.36,257.00 310.49,256.34 311.56,255.53C312.71,254.66 315.76,254.05 319.05,254.03C324.12,254.00 324.91,253.68 328.05,250.38C329.95,248.39 333.03,246.10 334.91,245.30C337.23,244.31 341.05,243.93 346.91,244.12C355.50,244.39 355.50,244.39 355.20,240.66C355.04,238.60 352.45,227.94 349.45,216.98C346.44,206.01 343.05,194.55 341.91,191.50C339.84,185.96 339.84,185.96 333.56,186.60C329.57,187.01 325.92,186.80 323.55,186.02C321.51,185.34 318.28,183.43 316.39,181.77C312.96,178.76 312.96,178.76 309.23,181.32C307.18,182.73 304.15,184.40 302.50,185.02C300.71,185.70 297.28,185.90 294.00,185.52C290.98,185.17 286.93,184.40 285.00,183.80C283.07,183.20 279.63,181.43 277.35,179.88C274.81,178.14 272.34,175.26 270.97,172.44C269.24,168.86 268.89,166.85 269.37,163.33C269.71,160.85 271.14,156.50 272.56,153.66C273.97,150.82 276.52,146.75 278.23,144.60C281.33,140.70 281.33,140.70 278.42,141.40C276.81,141.78 272.02,142.35 267.77,142.67C260.76,143.20 259.53,143.00 254.55,140.57C251.52,139.09 247.52,136.09 245.64,133.90C243.77,131.71 241.64,127.80 240.90,125.21C240.17,122.62 239.62,118.02 239.68,114.98C239.75,111.95 240.34,107.47 240.99,105.03C241.65,102.58 243.48,98.71 245.06,96.41C246.64,94.11 250.01,90.86 252.55,89.18C255.52,87.21 259.05,85.89 262.50,85.46C265.43,85.09 270.24,85.11 273.17,85.51C276.10,85.90 280.07,86.87 282.00,87.66C283.93,88.45 287.17,90.24 289.20,91.65C291.24,93.06 293.64,95.32 294.53,96.69C295.43,98.06 295.95,99.38 295.70,99.63C295.45,99.88 291.68,98.27 287.33,96.05C281.51,93.07 277.44,91.75 271.94,91.06C267.82,90.53 262.88,90.46 260.96,90.90C259.03,91.33 256.51,92.19 255.36,92.81C254.21,93.42 251.89,95.50 250.19,97.43C248.50,99.37 246.64,102.65 246.06,104.72C245.48,106.80 245.01,110.97 245.01,114.00C245.01,117.81 245.65,120.55 247.08,122.90C248.22,124.78 250.13,127.12 251.33,128.11C252.52,129.11 255.49,130.61 257.93,131.46C260.42,132.33 265.67,133.00 269.93,132.99C274.09,132.99 280.43,132.53 284.00,131.97C287.57,131.42 291.74,130.71 293.25,130.40C294.76,130.09 296.00,129.18 296.00,128.38C296.00,127.58 295.10,125.15 294.00,122.99C292.90,120.83 290.31,117.90 288.25,116.47C284.50,113.87 284.50,113.87 289.24,114.55C293.32,115.13 294.06,114.97 294.60,113.36C294.94,112.34 296.34,109.11 297.71,106.20C300.20,100.89 300.20,100.89 297.66,97.20C296.09,94.92 294.44,90.16 293.34,84.80C291.85,77.49 291.76,75.19 292.74,70.51C293.38,67.45 294.89,63.56 296.09,61.88C297.28,60.20 300.04,57.54 302.20,55.97C304.37,54.40 308.63,52.60 311.66,51.97C314.89,51.30 319.72,51.11 323.33,51.51C326.73,51.89 331.51,53.07 333.96,54.14C336.42,55.20 339.28,56.85 340.32,57.79C341.36,58.73 343.30,61.64 344.62,64.25C345.95,66.86 347.31,71.71 347.66,75.03C348.01,78.35 348.59,81.25 348.96,81.48C349.33,81.70 351.40,81.26 353.57,80.49C355.73,79.72 360.40,79.07 363.93,79.04C368.46,79.01 371.63,79.61 374.63,81.06C377.35,82.38 380.01,84.81 381.97,87.77C383.66,90.32 385.71,94.65 386.52,97.39C387.33,100.12 388.00,104.67 388.00,107.49C388.00,111.41 387.33,113.67 385.12,117.15C383.53,119.65 380.92,122.63 379.31,123.78C377.70,124.93 375.16,126.17 373.68,126.54C372.20,126.92 370.72,127.64 370.41,128.15C370.09,128.66 371.42,130.83 373.36,132.98C375.30,135.12 377.68,138.37 378.66,140.19C379.84,142.39 380.43,145.68 380.43,150.00C380.43,154.72 379.83,157.62 378.27,160.59C377.09,162.85 374.51,166.10 372.55,167.83C370.58,169.55 367.52,171.72 365.74,172.66C363.96,173.59 359.57,174.61 356.00,174.92C349.79,175.47 349.51,175.61 349.76,178.00C349.91,179.38 352.27,188.60 355.01,198.50C357.74,208.40 361.11,221.68 362.48,228.00C363.85,234.32 365.20,240.45 365.47,241.61C365.90,243.43 366.92,243.81 372.74,244.32C376.46,244.65 380.40,245.05 381.50,245.21C383.28,245.47 383.49,244.96 383.39,240.50C383.33,237.75 383.66,227.20 384.12,217.06C384.59,206.91 385.69,194.38 386.58,189.20C388.18,179.80 388.18,179.80 385.71,177.15C384.35,175.69 382.74,173.52 382.12,172.32C381.50,171.11 381.00,168.93 381.00,167.46C381.00,165.11 381.30,164.86 383.48,165.41C385.50,165.91 386.04,165.61 386.43,163.76C386.70,162.52 387.06,157.22 387.24,152.00C387.53,143.87 388.02,141.56 390.65,136.00C392.35,132.43 395.25,127.62 397.12,125.31C398.98,123.01 402.58,119.55 405.12,117.61C407.67,115.68 412.74,112.45 416.40,110.44C420.06,108.43 429.00,104.85 436.28,102.48C443.55,100.10 451.62,97.35 454.22,96.35C457.30,95.17 459.27,94.88 459.90,95.52C460.51,96.14 460.51,98.32 459.91,101.50C459.38,104.25 458.04,112.58 456.92,120.00C455.79,127.42 454.19,136.20 453.35,139.50C452.51,142.80 450.19,148.65 448.18,152.50C445.85,156.98 441.91,162.13 437.26,166.80C431.86,172.22 428.06,175.02 422.46,177.68C416.07,180.71 413.56,181.33 405.92,181.77C398.69,182.18 396.73,182.63 395.98,184.04C395.46,185.01 394.31,190.23 393.42,195.65C392.53,201.07 391.46,215.18 391.04,227.00C390.28,248.50 390.28,248.50 393.16,252.95C394.74,255.40 396.46,259.00 396.98,260.95C397.49,262.90 398.16,265.74 398.47,267.25C399.03,269.96 399.10,269.98 402.37,268.62C404.20,267.85 407.46,266.93 409.60,266.58C411.75,266.22 415.96,266.41 418.98,266.98C421.99,267.56 426.19,269.18 428.31,270.59C430.44,272.00 432.92,274.50 433.84,276.16C434.75,277.81 437.63,282.59 440.24,286.78C442.85,290.97 445.26,295.87 445.60,297.67C446.06,300.14 445.45,302.58 443.11,307.59C441.40,311.24 440.00,314.36 440.00,314.53C440.00,314.70 441.57,315.81 443.48,316.99C445.40,318.17 447.40,318.87 447.94,318.54C448.48,318.20 450.30,315.36 451.99,312.22C453.67,309.07 457.85,302.59 461.28,297.82C464.70,293.04 470.14,286.08 473.37,282.35C479.24,275.56 479.24,275.56 475.88,273.03C474.03,271.64 465.50,263.89 456.93,255.81C445.11,244.66 440.58,239.69 438.21,235.24C436.39,231.83 434.59,226.41 433.91,222.30C433.05,217.06 433.03,213.62 433.85,208.99C434.45,205.55 435.92,200.73 437.12,198.26C438.68,195.03 440.29,193.35 442.89,192.25C445.93,190.95 447.68,190.89 454.00,191.85C458.12,192.48 462.36,193.11 463.40,193.25C464.93,193.45 465.53,192.50 466.48,188.38C467.12,185.57 468.89,181.16 470.39,178.59C471.90,176.02 474.91,172.63 477.09,171.05C479.26,169.48 483.34,167.64 486.16,166.96C489.41,166.18 495.19,165.92 501.90,166.24C508.25,166.54 514.02,167.39 516.30,168.35C518.40,169.22 521.76,171.31 523.78,172.97C526.70,175.37 528.41,176.00 532.07,176.00C534.61,176.00 539.16,176.85 542.18,177.89C545.20,178.93 549.04,180.49 550.72,181.35C552.39,182.22 556.30,185.25 559.41,188.10C562.53,190.94 566.18,195.15 567.53,197.46C568.88,199.76 570.42,203.93 570.94,206.71C571.59,210.09 571.55,213.03 570.85,215.59C570.16,218.07 567.55,221.73 563.40,226.03C559.88,229.68 557.00,232.90 557.00,233.19C557.00,233.48 560.14,234.00 563.97,234.36C567.81,234.72 573.55,235.98 576.72,237.16C579.96,238.36 584.10,240.90 586.15,242.94C588.37,245.14 590.28,248.31 590.99,250.98C591.70,253.61 591.91,257.55 591.51,260.73C591.15,263.66 589.35,270.58 587.52,276.09C585.68,281.61 583.02,287.88 581.60,290.04C580.17,292.19 576.73,295.75 573.94,297.95C570.68,300.53 565.98,302.89 560.69,304.61C553.70,306.88 550.82,307.26 541.00,307.22C531.59,307.18 527.87,306.69 520.52,304.53C515.58,303.07 509.32,300.67 506.59,299.19C503.87,297.71 498.30,293.24 494.22,289.25C490.14,285.26 486.43,282.00 485.98,282.00C485.53,282.00 482.74,284.81 479.78,288.25C476.81,291.69 473.00,296.31 471.29,298.52C469.59,300.73 465.24,307.47 461.61,313.50C455.02,324.47 455.02,324.47 455.65,332.60C456.22,340.01 456.04,341.23 453.61,346.55C452.02,350.01 449.05,354.11 446.30,356.64C441.66,360.89 441.66,360.91 442.83,364.82C443.47,366.97 444.00,370.16 444.00,371.90C444.00,373.64 443.30,376.74 442.45,378.78C441.60,380.83 438.88,385.07 436.41,388.22C433.94,391.36 430.76,396.54 429.34,399.72C427.92,402.90 425.69,408.32 424.38,411.77C423.07,415.22 421.60,419.84 421.11,422.02C420.61,424.21 420.58,426.00 421.02,426.00C421.47,426.00 424.78,422.22 428.39,417.61C431.99,412.99 438.07,406.36 441.90,402.86C445.72,399.36 450.53,394.25 452.57,391.50C454.62,388.75 458.59,384.08 461.40,381.13C464.20,378.17 469.78,373.59 473.79,370.93C477.80,368.28 483.50,365.21 486.45,364.11C489.39,363.00 495.79,361.35 500.65,360.42C507.93,359.04 513.04,358.85 529.50,359.36C540.50,359.70 553.46,360.28 558.30,360.64C565.76,361.20 567.00,361.54 566.49,362.89C566.16,363.76 563.37,368.53 560.29,373.48C557.22,378.44 552.87,385.39 550.62,388.93C548.37,392.46 543.37,398.56 539.52,402.48C534.85,407.22 530.12,410.84 525.41,413.28C521.51,415.29 515.68,417.63 512.45,418.47C509.22,419.31 502.74,419.99 498.04,419.99C493.34,419.98 486.58,419.28 483.02,418.44C479.46,417.60 473.74,415.35 470.32,413.44C466.89,411.52 462.04,408.39 459.54,406.48C457.03,404.56 454.39,403.00 453.67,403.00C452.95,403.00 448.75,406.71 444.34,411.25C439.93,415.79 433.80,422.93 430.72,427.12C427.63,431.31 422.84,438.99 420.07,444.18C417.29,449.37 413.26,458.99 411.10,465.56C408.91,472.25 406.02,484.34 404.54,493.01C403.09,501.53 401.67,512.33 401.37,517.00C400.84,525.50 400.84,525.50 403.06,522.00C404.29,520.08 407.63,514.67 410.50,510.00C413.38,505.32 417.66,498.14 420.04,494.03C422.49,489.78 427.40,483.52 431.42,479.53C435.32,475.66 440.75,471.39 443.50,470.03C447.16,468.22 450.51,467.47 456.00,467.24C463.50,466.92 463.50,466.92 456.17,470.87C452.14,473.05 447.98,475.62 446.92,476.57C445.86,477.53 445.00,478.86 445.00,479.54C445.00,480.42 447.34,480.09 453.20,478.38C458.38,476.88 463.99,476.00 468.45,476.00C472.33,475.99 479.32,476.71 484.00,477.59C488.68,478.47 494.16,479.66 496.18,480.23C498.21,480.81 502.92,483.58 506.65,486.39C510.38,489.20 515.81,494.43 518.70,498.00C521.60,501.57 524.24,505.32 524.58,506.33C524.91,507.33 524.91,508.42 524.58,508.75C524.25,509.09 521.62,508.64 518.74,507.77C515.86,506.89 510.55,505.88 506.93,505.53C500.87,504.93 499.17,505.27 484.63,509.96C474.69,513.16 466.21,515.26 461.62,515.65C457.53,516.00 451.31,515.75 447.42,515.10C443.61,514.46 436.09,512.55 430.69,510.86C421.67,508.04 420.74,507.92 419.12,509.39C418.16,510.26 415.30,514.92 412.78,519.74C410.25,524.56 407.28,531.48 406.16,535.12C405.05,538.77 403.62,546.28 402.97,551.82C402.08,559.51 402.08,565.26 402.98,576.19C403.62,584.06 405.71,599.27 407.61,610.00C409.52,620.73 412.86,640.23 415.03,653.34C417.20,666.45 420.10,685.58 421.46,695.84C422.82,706.10 424.40,720.12 424.97,727.00C425.54,733.88 426.24,741.36 426.54,743.63C426.94,746.66 426.65,748.20 425.47,749.38C424.34,750.52 422.17,750.97 418.18,750.91zM391.07,544.50C391.48,531.30 392.33,514.88 392.97,508.00C393.61,501.12 395.68,486.95 397.58,476.50C399.48,466.05 402.40,451.88 404.06,445.00C405.72,438.12 408.42,428.23 410.06,423.00C411.70,417.77 414.68,409.55 416.67,404.73C418.66,399.91 420.05,395.72 419.76,395.43C419.47,395.14 417.55,396.04 415.50,397.44C413.44,398.83 410.14,400.42 408.15,400.97C406.17,401.52 402.16,401.68 399.25,401.34C395.94,400.95 392.21,399.61 389.32,397.78C384.69,394.84 384.69,394.84 381.09,398.76C379.12,400.92 375.59,403.88 373.25,405.35C369.30,407.84 369.00,408.34 369.00,412.42C369.00,414.84 369.67,422.15 370.49,428.66C371.31,435.17 374.02,457.15 376.52,477.50C379.01,497.85 382.19,522.83 383.59,533.00C384.98,543.17 386.99,555.05 388.06,559.39C389.13,563.73 390.07,567.55 390.16,567.89C390.25,568.22 390.66,557.70 391.07,544.50zM447.52,497.00C449.07,497.00 454.20,496.28 458.92,495.39C466.36,494.00 469.62,493.94 483.50,494.96C492.30,495.60 501.30,496.38 503.50,496.68C507.50,497.24 507.50,497.24 505.00,494.48C503.62,492.97 500.02,490.56 497.00,489.14C491.95,486.76 490.42,486.55 478.50,486.56C466.27,486.58 464.99,486.77 456.85,489.85C452.10,491.64 447.42,493.99 446.45,495.06C444.75,496.94 444.78,497.00 447.52,497.00zM276.18,418.10C278.32,416.52 285.26,410.61 291.59,404.96C297.92,399.32 303.75,393.76 304.55,392.62C305.35,391.49 306.00,390.21 306.00,389.78C306.00,389.35 305.42,389.00 304.71,389.00C304.00,389.00 299.79,391.23 295.37,393.95C290.78,396.78 284.67,401.74 281.16,405.49C277.78,409.11 274.12,413.79 273.05,415.91C271.97,418.02 271.36,420.02 271.69,420.36C272.02,420.69 274.04,419.67 276.18,418.10zM268.05,406.00C269.18,406.00 271.38,405.34 272.94,404.53C274.49,403.73 278.07,400.31 280.89,396.95C283.70,393.58 286.00,390.41 286.00,389.91C286.00,389.41 285.41,389.00 284.70,389.00C283.98,389.00 281.06,390.16 278.20,391.59C275.34,393.01 271.43,396.02 269.50,398.27C267.58,400.52 266.00,403.18 266.00,404.18C266.00,405.35 266.73,406.00 268.05,406.00zM508.50,403.82C513.50,403.93 513.50,403.93 510.71,401.71C509.18,400.50 506.15,398.00 503.99,396.16C500.05,392.82 500.05,392.82 490.46,396.01C485.19,397.77 481.16,399.50 481.52,399.85C481.87,400.21 486.96,401.22 492.83,402.10C498.70,402.98 505.75,403.76 508.50,403.82zM460.24,400.00C460.80,400.00 462.82,398.35 464.72,396.33C466.63,394.31 470.66,389.56 473.69,385.76C476.72,381.97 479.00,378.67 478.76,378.43C478.52,378.19 475.66,379.73 472.41,381.86C469.16,383.99 465.29,387.03 463.81,388.61C462.34,390.20 460.46,392.79 459.64,394.37C458.83,395.96 458.40,397.87 458.69,398.62C458.98,399.38 459.68,400.00 460.24,400.00zM356.26,398.76C364.31,398.99 366.02,398.73 369.50,396.76C372.09,395.29 374.32,392.91 375.82,390.00C377.84,386.10 378.07,384.58 377.55,378.58C377.22,374.77 376.05,368.02 374.94,363.58C373.83,359.13 372.43,354.25 371.83,352.71C371.22,351.18 369.96,349.51 369.02,349.01C367.93,348.43 366.92,348.48 366.25,349.15C365.50,349.90 364.84,349.57 364.03,348.05C363.19,346.49 362.11,345.97 360.18,346.19C357.96,346.45 356.88,347.75 353.84,353.83C351.82,357.86 349.91,361.43 349.58,361.75C349.26,362.07 349.29,359.51 349.65,356.05C350.29,349.94 350.25,349.79 348.15,350.45C346.97,350.83 346.00,350.71 346.00,350.19C346.00,349.68 346.66,347.39 347.46,345.13C348.74,341.48 348.74,341.00 347.41,341.00C346.59,341.00 342.67,343.20 338.70,345.88C334.74,348.56 328.73,353.65 325.35,357.19C321.96,360.73 317.80,365.82 316.10,368.51C313.80,372.13 313.00,374.57 313.00,377.96C313.00,381.48 313.59,383.16 315.60,385.32C317.03,386.86 319.35,388.56 320.76,389.10C322.17,389.64 325.22,389.79 327.53,389.44C331.47,388.85 331.99,389.07 335.74,392.85C337.94,395.08 341.04,397.18 342.62,397.54C344.20,397.89 345.84,398.25 346.26,398.34C346.67,398.43 351.17,398.62 356.26,398.76zM518.75,394.87C521.55,394.96 523.00,394.57 523.00,393.75C523.00,393.06 525.39,391.26 528.30,389.74C531.21,388.22 536.47,384.07 539.99,380.51C543.51,376.96 546.11,373.78 545.77,373.44C545.44,373.10 540.74,374.63 535.33,376.83C529.92,379.04 521.00,382.70 515.50,384.97C510.00,387.25 504.66,389.94 503.63,390.95C501.81,392.75 501.93,392.82 508.13,393.77C511.63,394.31 516.41,394.80 518.75,394.87zM404.45,392.55C406.08,392.23 408.44,391.00 409.70,389.81C411.03,388.57 412.00,386.48 412.00,384.88C412.00,383.36 412.37,381.89 412.83,381.61C413.28,381.32 415.27,382.24 417.23,383.64C420.75,386.14 420.87,386.15 424.40,384.48C426.37,383.54 429.38,381.20 431.07,379.27C432.77,377.33 434.63,374.72 435.20,373.45C435.78,372.19 435.97,369.63 435.62,367.76C435.23,365.73 433.01,362.17 430.05,358.84C426.81,355.21 422.65,352.02 417.95,349.55C414.02,347.48 406.31,344.26 400.82,342.39C395.34,340.53 390.21,339.00 389.42,339.00C388.64,339.00 388.00,339.61 388.00,340.35C388.00,341.08 388.90,342.50 390.00,343.50C391.10,344.50 392.00,345.70 392.00,346.18C392.00,346.67 390.19,346.03 387.98,344.78C384.59,342.85 383.82,342.72 383.06,343.94C382.47,344.87 382.65,346.36 383.57,348.14C384.36,349.66 385.00,351.64 385.00,352.54C385.00,353.85 384.38,353.66 381.92,351.58C380.22,350.15 378.37,349.27 377.80,349.63C377.19,350.00 377.01,352.04 377.36,354.60C377.69,356.99 379.31,362.45 380.96,366.72C382.62,371.00 385.79,377.28 388.01,380.68C390.44,384.38 393.94,388.11 396.78,389.99C400.39,392.39 402.19,392.99 404.45,392.55zM490.00,389.00C491.10,389.00 492.79,388.17 493.75,387.15C494.71,386.14 498.31,381.91 501.75,377.76C505.19,373.61 508.00,369.96 508.00,369.65C508.00,369.34 506.17,369.73 503.93,370.52C501.70,371.31 498.51,372.93 496.85,374.11C495.18,375.29 492.51,378.07 490.91,380.28C489.31,382.49 488.00,385.36 488.00,386.65C488.00,388.33 488.57,389.00 490.00,389.00zM219.66,378.63C213.71,378.91 209.57,378.50 204.37,377.09C200.45,376.02 194.46,373.75 191.07,372.03C187.67,370.32 181.65,366.62 177.69,363.82C173.74,361.03 168.61,357.21 166.29,355.34C163.92,353.42 162.31,351.36 162.59,350.61C162.87,349.89 169.27,346.33 176.80,342.71C184.34,339.08 193.26,335.42 196.64,334.56C200.02,333.70 206.58,333.00 211.21,333.00C216.05,333.00 221.95,333.69 225.07,334.61C228.06,335.50 232.67,337.32 235.33,338.67C237.99,340.01 242.49,343.48 245.33,346.37C248.17,349.27 252.32,353.63 254.55,356.07C256.78,358.50 261.88,362.67 265.89,365.33C269.90,367.98 272.95,370.38 272.68,370.65C272.41,370.92 270.73,370.40 268.96,369.48C267.18,368.56 263.20,366.96 260.11,365.93C257.03,364.89 253.57,364.04 252.42,364.02C251.28,364.01 247.68,366.09 244.42,368.64C241.17,371.19 236.09,374.39 233.16,375.76C229.25,377.57 225.61,378.34 219.66,378.63zM236.27,358.86C240.49,356.71 240.49,356.71 237.61,354.60C236.03,353.45 232.88,350.74 230.62,348.59C228.35,346.43 225.15,343.85 223.50,342.84C221.85,341.83 219.68,341.01 218.67,341.00C217.18,341.00 217.51,341.78 220.43,345.19C222.40,347.50 223.68,349.72 223.26,350.14C222.84,350.55 218.00,350.02 212.50,348.95C207.00,347.88 200.03,347.01 197.00,347.02C193.97,347.02 190.49,347.30 189.25,347.63C188.01,347.96 187.00,348.60 187.00,349.04C187.00,349.48 188.46,350.30 190.25,350.86C192.04,351.43 196.54,352.19 200.25,352.56C203.96,352.93 206.99,353.52 206.97,353.87C206.95,354.21 206.29,355.35 205.50,356.40C204.71,357.44 204.27,358.62 204.51,359.02C204.76,359.42 208.91,358.92 213.73,357.91C218.55,356.90 223.99,356.06 225.82,356.04C227.64,356.02 230.04,356.48 231.14,357.08C232.29,357.69 232.92,358.77 232.61,359.58C232.21,360.62 233.20,360.43 236.27,358.86zM300.00,358.88C301.38,358.92 305.55,358.52 309.27,357.98C313.44,357.38 318.72,355.65 323.00,353.50C326.82,351.58 333.11,347.28 336.97,343.95C341.27,340.26 344.00,337.14 344.00,335.93C344.00,334.69 342.97,333.56 341.25,332.90C339.57,332.26 334.82,332.10 329.00,332.49C322.22,332.95 319.93,332.83 321.00,332.08C321.82,331.50 325.55,329.82 329.28,328.34C333.01,326.87 335.71,325.31 335.27,324.87C334.84,324.44 329.54,323.62 323.49,323.04C317.45,322.47 309.35,321.99 305.50,321.97C300.32,321.95 298.95,321.68 300.22,320.93C301.17,320.38 309.40,319.65 318.50,319.31C329.78,318.88 334.95,318.34 334.70,317.59C334.51,316.99 332.44,315.21 330.11,313.64C327.78,312.07 326.06,310.61 326.28,310.38C326.51,310.16 328.58,310.65 330.89,311.46C334.59,312.77 335.15,312.77 335.65,311.46C335.96,310.65 335.53,308.93 334.69,307.65C333.85,306.36 330.89,303.85 328.11,302.07C325.33,300.29 320.69,297.93 317.78,296.82C314.88,295.72 309.26,294.57 305.29,294.27C300.89,293.93 296.35,294.20 293.65,294.96C291.21,295.64 287.53,297.58 285.48,299.28C283.43,300.97 281.13,303.83 280.38,305.64C279.62,307.45 279.00,310.78 279.00,313.03C279.00,315.29 279.98,319.40 281.17,322.18C283.07,326.60 283.19,327.63 282.09,330.37C281.39,332.09 280.41,335.20 279.90,337.28C279.39,339.36 279.27,342.28 279.63,343.78C279.99,345.28 280.86,347.65 281.57,349.07C282.28,350.48 284.68,352.89 286.91,354.44C289.14,355.98 292.43,357.59 294.23,358.02C296.03,358.45 298.62,358.83 300.00,358.88zM436.10,348.91C438.36,348.97 440.26,348.35 441.23,347.25C442.07,346.29 443.67,343.70 444.78,341.49C445.89,339.29 446.89,336.36 447.01,334.99C447.13,333.62 447.17,331.26 447.11,329.75C447.04,327.90 445.43,325.38 442.25,322.12C437.97,317.72 436.85,317.13 430.92,316.12C427.30,315.50 422.43,315.00 420.09,315.00C417.76,315.00 412.40,316.16 408.18,317.57C403.95,318.99 398.99,321.30 397.15,322.70C395.30,324.11 393.21,326.64 392.50,328.33C391.80,330.01 391.41,331.92 391.66,332.56C391.90,333.19 396.70,335.78 402.32,338.30C407.94,340.82 417.02,344.22 422.52,345.85C428.01,347.49 434.12,348.86 436.10,348.91zM363.77,324.62C366.67,324.36 370.49,323.24 372.27,322.14C374.05,321.03 376.51,319.19 377.75,318.03C378.99,316.87 380.00,315.02 380.00,313.91C380.00,312.52 378.70,311.31 375.75,309.97C373.41,308.91 369.48,308.04 367.00,308.03C364.27,308.01 361.24,308.77 359.30,309.96C357.55,311.03 355.38,313.02 354.48,314.39C353.59,315.75 353.00,318.13 353.18,319.66C353.38,321.41 354.43,322.95 356.00,323.78C357.57,324.61 360.45,324.92 363.77,324.62zM393.58,316.00C394.26,316.00 399.02,314.90 404.16,313.55C409.30,312.21 417.07,310.62 421.44,310.04C425.98,309.42 430.14,308.28 431.15,307.36C432.13,306.48 433.65,303.85 434.54,301.53C435.99,297.74 436.00,296.94 434.66,293.72C433.42,290.76 432.58,290.08 429.83,289.82C427.47,289.59 426.60,289.06 426.86,288.00C427.05,287.18 427.43,284.93 427.69,283.00C428.09,280.11 427.68,279.04 425.34,276.84C423.78,275.38 420.70,273.70 418.50,273.10C416.30,272.50 413.38,272.01 412.00,272.01C410.62,272.01 407.80,272.48 405.72,273.06C403.65,273.64 400.30,275.55 398.29,277.30C396.28,279.06 392.11,283.91 389.01,288.08C385.92,292.24 382.80,297.07 382.08,298.81C381.36,300.54 381.04,302.65 381.36,303.49C381.68,304.33 383.09,305.54 384.50,306.18C386.57,307.13 387.73,307.02 390.65,305.63C392.63,304.69 394.47,304.13 394.73,304.40C395.00,304.67 394.27,306.22 393.11,307.85C391.95,309.48 391.00,311.68 391.00,312.74C391.00,313.80 391.30,314.97 391.67,315.33C392.03,315.70 392.89,316.00 393.58,316.00zM346.12,311.00C346.56,311.00 349.44,309.23 352.54,307.06C357.01,303.93 359.68,302.87 365.58,301.92C369.66,301.26 373.00,300.38 373.00,299.95C373.00,299.53 371.06,298.24 368.68,297.09C366.31,295.94 363.05,295.01 361.43,295.02C359.82,295.03 356.70,295.86 354.49,296.86C352.29,297.87 349.02,300.35 347.24,302.38C345.46,304.41 344.00,306.88 344.00,307.87C344.00,308.86 344.30,309.97 344.67,310.33C345.03,310.70 345.69,311.00 346.12,311.00zM339.00,301.65C339.86,301.56 340.64,300.25 340.83,298.60C341.04,296.80 340.36,294.63 339.05,292.85C337.89,291.28 337.26,290.00 337.66,290.00C338.05,290.00 339.42,290.98 340.70,292.19C342.26,293.65 343.36,294.04 344.03,293.37C344.71,292.69 344.58,291.05 343.63,288.38C342.86,286.19 340.79,281.55 339.04,278.07C337.28,274.59 333.83,269.59 331.37,266.96C328.91,264.33 325.39,261.46 323.54,260.59C321.70,259.71 318.69,259.00 316.85,259.00C315.01,259.01 312.07,259.88 310.32,260.95C308.57,262.02 305.32,265.18 303.10,267.99C300.89,270.79 298.79,274.62 298.44,276.49C297.95,279.06 298.38,280.97 300.16,284.20C302.37,288.20 302.88,288.54 307.52,289.03C310.26,289.33 315.69,290.80 319.59,292.31C323.48,293.82 329.11,296.57 332.09,298.43C335.06,300.30 338.18,301.74 339.00,301.65zM549.50,296.89C551.15,296.95 554.30,296.51 556.50,295.92C558.70,295.32 560.96,294.25 561.53,293.53C562.10,292.81 564.62,291.25 567.13,290.07C569.65,288.89 572.95,286.61 574.48,285.02C576.01,283.42 577.03,281.51 576.74,280.77C576.46,280.03 572.12,278.20 567.11,276.70C562.10,275.20 558.00,273.53 558.00,272.98C558.00,272.44 558.56,271.98 559.25,271.95C559.94,271.92 564.00,271.52 568.28,271.08C573.61,270.52 576.71,269.67 578.13,268.38C579.28,267.35 581.06,264.83 582.11,262.79C583.15,260.75 584.00,257.12 584.00,254.73C584.00,251.27 583.44,249.85 581.25,247.81C579.74,246.40 577.60,244.79 576.50,244.23C575.40,243.66 571.00,242.68 566.72,242.03C560.99,241.16 557.11,241.14 551.99,241.93C548.17,242.53 542.67,243.91 539.77,245.00C536.87,246.10 532.02,248.46 529.00,250.25C523.50,253.50 523.50,253.50 533.50,254.00C543.50,254.50 543.50,254.50 536.50,256.89C532.65,258.20 527.70,260.16 525.50,261.25C523.30,262.34 519.07,265.09 516.10,267.36C513.14,269.64 508.64,272.63 506.10,274.00C503.02,275.68 501.50,277.16 501.50,278.49C501.50,279.98 503.60,281.52 510.00,284.68C514.67,286.99 521.88,290.03 526.00,291.43C530.12,292.83 536.42,294.61 540.00,295.39C543.58,296.16 547.85,296.84 549.50,296.89zM376.11,293.94C377.03,293.45 379.36,290.84 381.30,288.14C383.24,285.45 385.60,281.74 386.55,279.90C387.70,277.68 388.26,274.32 388.23,269.84C388.21,266.14 387.69,261.59 387.07,259.72C386.46,257.86 384.73,255.17 383.23,253.75C381.73,252.33 378.48,250.61 376.00,249.92C373.05,249.10 365.80,248.74 355.00,248.88C341.71,249.05 338.02,249.41 336.00,250.72C334.63,251.62 332.95,253.06 332.28,253.92C331.61,254.79 331.05,256.59 331.03,257.91C331.01,259.24 332.28,262.39 333.83,264.91C335.39,267.44 339.51,274.54 342.97,280.70C346.44,286.85 349.97,292.16 350.81,292.48C351.65,292.80 352.81,292.59 353.38,292.02C353.96,291.44 354.33,288.70 354.21,285.92C354.08,282.85 354.38,281.11 354.97,281.48C355.50,281.81 356.82,284.07 357.90,286.50C359.27,289.61 360.62,291.12 362.44,291.57C363.96,291.95 365.64,291.71 366.51,290.99C367.33,290.31 368.00,288.91 368.00,287.88C368.00,286.84 368.40,286.00 368.89,286.00C369.38,286.00 370.07,287.56 370.43,289.47C370.79,291.38 371.84,293.37 372.76,293.89C373.77,294.45 375.12,294.47 376.11,293.94zM520.84,272.01C516.98,272.30 513.65,272.24 513.43,271.89C513.21,271.53 514.43,270.96 516.14,270.62C517.85,270.28 521.52,270.00 524.29,270.00C527.06,270.00 529.00,270.34 528.59,270.75C528.18,271.16 524.69,271.73 520.84,272.01zM291.04,272.00C292.28,272.00 293.42,271.01 294.02,269.43C294.56,268.02 295.00,265.74 295.00,264.36C295.00,262.98 293.87,259.93 292.49,257.57C291.11,255.22 289.08,252.48 287.98,251.49C286.89,250.49 285.80,249.87 285.57,250.10C285.34,250.32 285.82,253.39 286.63,256.90C287.44,260.41 287.87,263.89 287.58,264.64C287.30,265.39 286.04,266.01 284.78,266.03C282.62,266.06 282.67,266.22 285.77,269.03C287.56,270.66 289.94,272.00 291.04,272.00zM279.25,263.95C279.66,263.98 280.00,263.65 280.00,263.23C280.00,262.81 278.92,260.87 277.59,258.92C276.27,256.97 272.11,252.87 268.34,249.81C264.58,246.74 257.80,242.38 253.27,240.12C248.75,237.85 244.04,236.00 242.81,236.00C240.87,236.00 241.28,236.72 245.85,241.35C248.76,244.29 254.59,248.76 258.82,251.29C263.04,253.82 269.20,257.68 272.50,259.89C275.80,262.09 278.84,263.92 279.25,263.95zM471.72,246.00C473.01,246.00 472.97,245.59 471.46,243.25C470.49,241.74 468.04,238.47 466.02,236.00C464.01,233.53 461.60,230.39 460.68,229.03C459.76,227.67 459.00,226.19 459.00,225.75C459.00,225.31 460.46,225.70 462.25,226.62C464.04,227.54 468.12,230.06 471.33,232.23C474.53,234.40 477.35,235.99 477.58,235.75C477.82,235.52 476.68,230.86 475.06,225.41C473.43,219.96 471.34,211.93 470.41,207.56C469.27,202.20 467.96,198.87 466.40,197.31C464.63,195.53 462.87,194.97 458.80,194.85C455.88,194.77 452.15,194.80 450.50,194.93C448.85,195.06 446.28,196.32 444.79,197.73C443.01,199.42 441.70,202.11 440.98,205.60C440.21,209.31 440.19,212.55 440.90,216.41C441.46,219.44 442.84,223.72 443.96,225.93C445.09,228.14 447.40,231.53 449.10,233.46C450.89,235.50 455.99,238.89 461.20,241.49C466.15,243.97 470.88,246.00 471.72,246.00zM534.63,237.00C534.88,237.00 536.97,236.05 539.29,234.88C541.61,233.71 546.20,230.83 549.50,228.48C552.80,226.12 556.93,222.69 558.69,220.85C560.44,219.01 562.35,216.23 562.94,214.68C563.52,213.14 564.00,210.30 564.00,208.37C564.00,206.45 562.83,202.40 561.40,199.38C559.67,195.73 557.17,192.60 553.91,190.02C551.22,187.90 546.65,185.00 543.76,183.59C540.87,182.18 536.42,180.74 533.88,180.39C529.59,179.81 528.99,180.02 525.28,183.36C523.09,185.34 519.89,189.61 518.16,192.84C516.44,196.08 514.41,201.15 513.65,204.11C512.89,207.08 512.47,210.04 512.72,210.69C513.04,211.54 513.90,211.61 515.70,210.92C517.10,210.39 519.38,209.06 520.77,207.97C522.16,206.87 523.48,206.15 523.70,206.37C523.92,206.58 521.55,211.29 518.45,216.83C515.34,222.37 512.99,227.46 513.21,228.14C513.45,228.85 517.10,226.06 521.81,221.56C526.32,217.25 529.99,214.13 529.99,214.62C529.98,215.10 528.84,219.05 527.46,223.39C526.07,227.72 525.12,231.46 525.35,231.68C525.57,231.91 529.90,228.44 534.97,223.97C540.04,219.50 544.41,216.08 544.69,216.36C544.97,216.64 544.66,218.50 544.00,220.51C543.34,222.51 540.86,227.04 538.49,230.57C536.12,234.11 534.38,237.00 534.63,237.00zM500.02,225.34C500.46,224.88 502.23,220.22 503.97,215.00C505.70,209.78 509.28,201.45 511.93,196.50C514.57,191.55 517.81,185.57 519.12,183.20C521.50,178.91 521.50,178.91 518.35,176.06C516.45,174.34 513.16,172.77 510.05,172.10C507.22,171.50 502.07,171.00 498.60,171.00C495.13,171.00 490.77,171.52 488.90,172.15C487.03,172.79 484.25,174.17 482.73,175.24C481.20,176.30 479.03,178.99 477.89,181.22C476.35,184.24 475.82,187.20 475.80,192.88C475.78,197.07 476.29,202.42 476.93,204.77C477.57,207.12 479.02,211.17 480.16,213.77C481.95,217.86 482.33,218.23 483.04,216.50C483.49,215.40 483.90,210.90 483.95,206.50C483.99,202.10 484.44,197.86 484.94,197.07C485.60,196.02 486.02,196.69 486.52,199.57C486.89,201.73 488.12,206.99 489.26,211.26C490.39,215.52 491.58,218.76 491.91,218.44C492.23,218.12 493.44,215.08 494.59,211.68C496.67,205.50 496.67,205.50 497.27,214.74C497.60,219.82 498.17,224.47 498.55,225.08C498.92,225.68 499.58,225.80 500.02,225.34zM327.50,176.96C330.75,176.98 333.62,176.31 335.70,175.04C337.46,173.97 339.65,171.65 340.55,169.90C342.12,166.87 342.10,166.47 340.12,162.10C338.97,159.57 336.89,154.37 335.48,150.54C334.08,146.71 332.20,142.78 331.31,141.79C330.42,140.81 328.71,140.00 327.52,140.00C326.33,140.00 324.42,141.01 323.28,142.25C321.73,143.95 320.82,147.33 319.58,156.00C318.69,162.32 317.69,168.93 317.38,170.67C316.89,173.40 317.20,174.05 319.65,175.38C321.22,176.23 324.75,176.94 327.50,176.96zM301.70,174.86C301.81,174.94 302.94,174.52 304.20,173.94C305.47,173.36 307.72,171.18 309.21,169.09C310.69,167.01 313.09,161.79 314.53,157.50C315.97,153.21 317.23,147.88 317.33,145.67C317.49,141.77 317.37,141.60 313.42,140.43C311.17,139.77 308.02,138.54 306.41,137.71C304.81,136.88 302.64,135.26 301.59,134.10C300.55,132.95 299.05,132.00 298.27,132.00C297.49,132.00 294.23,134.01 291.04,136.47C287.84,138.93 283.98,142.42 282.46,144.22C280.94,146.02 278.41,150.20 276.85,153.50C275.28,156.80 274.00,160.92 274.00,162.66C274.00,164.94 274.83,166.52 276.97,168.33C278.61,169.70 281.58,171.37 283.58,172.03C285.57,172.68 290.42,173.56 294.35,173.98C298.28,174.39 301.59,174.79 301.70,174.86zM402.98,170.00C403.53,170.00 407.98,168.27 412.89,166.15C417.80,164.03 424.71,160.24 428.24,157.73C431.76,155.21 435.88,151.54 437.38,149.57C438.87,147.61 441.49,143.20 443.19,139.78C445.34,135.44 446.54,131.16 447.16,125.58C447.65,121.19 448.71,114.48 449.50,110.66C450.30,106.85 450.71,103.34 450.42,102.87C450.13,102.40 447.69,103.13 445.01,104.50C442.32,105.86 436.60,108.36 432.31,110.05C428.01,111.74 421.57,114.86 417.98,116.97C414.39,119.09 409.09,123.14 406.21,125.99C403.32,128.83 399.84,133.35 398.48,136.04C396.74,139.48 396.00,142.56 396.00,146.41C396.00,149.42 396.42,152.14 396.93,152.46C397.44,152.77 399.29,150.36 401.03,147.09C402.78,143.82 406.57,138.28 409.46,134.77C412.35,131.26 417.19,126.28 420.22,123.70C423.24,121.11 426.02,119.00 426.40,119.00C426.77,119.00 425.24,121.70 423.00,124.99C420.77,128.29 418.05,133.05 416.97,135.58C415.89,138.10 415.00,141.25 415.00,142.58C415.00,144.22 415.56,145.00 416.75,145.00C417.71,144.99 421.20,143.88 424.50,142.52C427.80,141.16 431.30,140.04 432.28,140.02C433.92,140.00 433.94,140.22 432.54,142.92C431.71,144.53 429.11,147.39 426.77,149.28C424.42,151.17 418.35,155.48 413.28,158.86C408.21,162.24 403.60,165.88 403.03,166.94C402.47,168.00 402.00,169.12 402.00,169.43C402.00,169.75 402.44,170.00 402.98,170.00zM354.55,165.94C355.68,165.97 358.94,164.84 361.80,163.41C364.66,161.99 368.55,159.01 370.44,156.79C372.34,154.58 374.19,151.43 374.54,149.80C374.90,148.18 374.92,145.38 374.58,143.58C374.25,141.79 372.35,138.43 370.37,136.12C368.39,133.81 364.63,130.83 362.01,129.51C359.39,128.18 355.15,126.56 352.59,125.92C348.50,124.89 347.70,124.96 345.97,126.53C344.89,127.51 344.00,128.90 344.00,129.63C344.00,130.35 342.76,131.59 341.25,132.37C339.73,133.15 337.66,134.72 336.63,135.86C335.27,137.36 334.95,138.67 335.46,140.69C335.84,142.22 337.72,146.85 339.63,150.98C341.54,155.11 344.31,159.78 345.80,161.35C347.28,162.92 349.40,164.58 350.50,165.04C351.60,165.50 353.42,165.90 354.55,165.94zM357.37,119.76C362.57,119.44 367.40,118.48 370.31,117.19C372.87,116.05 376.06,114.03 377.41,112.68C378.76,111.33 380.38,108.31 381.01,105.96C382.10,101.91 381.96,101.30 378.36,94.30C376.28,90.24 373.74,86.17 372.73,85.25C371.56,84.19 368.59,83.44 364.57,83.19C360.61,82.93 356.22,83.38 352.78,84.38C348.55,85.60 346.24,87.10 342.65,90.94C340.09,93.68 338.00,96.65 338.00,97.55C338.00,98.45 339.58,101.03 341.52,103.30C343.46,105.56 345.53,109.23 346.12,111.45C346.72,113.68 347.62,116.57 348.14,117.89C349.05,120.20 349.34,120.26 357.37,119.76zM308.58,115.00C309.78,115.00 313.72,112.97 317.34,110.50C320.95,108.03 324.62,106.00 325.49,106.00C326.36,106.00 328.20,106.74 329.59,107.65C331.39,108.83 332.41,108.99 333.18,108.22C333.78,107.62 333.99,106.41 333.64,105.52C333.30,104.63 330.99,103.00 328.51,101.90C326.03,100.80 321.86,99.68 319.25,99.39C315.57,99.00 313.77,99.34 311.24,100.93C309.45,102.06 307.09,104.45 305.99,106.24C304.90,108.03 304.01,110.20 304.00,111.05C304.00,111.90 304.54,113.14 305.20,113.80C305.86,114.46 307.38,115.00 308.58,115.00zM304.92,98.64C305.79,98.36 308.50,97.40 310.94,96.51C313.38,95.61 317.20,94.81 319.44,94.72C321.67,94.63 325.98,94.92 329.00,95.36C334.50,96.16 334.50,96.16 337.50,88.33C339.83,82.26 340.50,78.89 340.50,73.32C340.50,67.62 340.07,65.57 338.42,63.32C337.21,61.69 334.27,59.76 331.42,58.75C327.82,57.47 324.06,57.06 317.42,57.25C309.22,57.48 307.98,57.77 304.67,60.30C302.65,61.84 300.27,64.51 299.38,66.23C298.17,68.57 297.88,71.16 298.22,76.43C298.47,80.32 299.73,87.02 301.01,91.32C302.83,97.44 303.68,99.04 304.92,98.64z" />

</svg>